<svg width="29" height="37" viewBox="0 0 29 37" fill="none" xmlns="http://www.w3.org/2000/svg">
<path d="M25.375 0H3.625C2.66391 0.00105545 1.74249 0.383313 1.0629 1.0629C0.383313 1.74249 0.00105545 2.66391 0 3.625V26.5833H7.25C7.89071 26.5841 8.50498 26.8389 8.95803 27.292C9.41108 27.745 9.66593 28.3593 9.66667 29V36.25H25.375C26.3361 36.2489 27.2575 35.8667 27.9371 35.1871C28.6167 34.5075 28.9989 33.5861 29 32.625V3.625C28.9989 2.66391 28.6167 1.74249 27.9371 1.0629C27.2575 0.383313 26.3361 0.00105545 25.375 0ZM8.45833 6.04167H20.5417C20.8621 6.04167 21.1695 6.16897 21.3961 6.39558C21.6227 6.62219 21.75 6.92953 21.75 7.25C21.75 7.57047 21.6227 7.87781 21.3961 8.10442C21.1695 8.33103 20.8621 8.45833 20.5417 8.45833H8.45833C8.13786 8.45833 7.83052 8.33103 7.60391 8.10442C7.37731 7.87781 7.25 7.57047 7.25 7.25C7.25 6.92953 7.37731 6.62219 7.60391 6.39558C7.83052 6.16897 8.13786 6.04167 8.45833 6.04167ZM8.45833 13.2917H20.5417C20.8621 13.2917 21.1695 13.419 21.3961 13.6456C21.6227 13.8722 21.75 14.1795 21.75 14.5C21.75 14.8205 21.6227 15.1278 21.3961 15.3544C21.1695 15.581 20.8621 15.7083 20.5417 15.7083H8.45833C8.13786 15.7083 7.83052 15.581 7.60391 15.3544C7.37731 15.1278 7.25 14.8205 7.25 14.5C7.25 14.1795 7.37731 13.8722 7.60391 13.6456C7.83052 13.419 8.13786 13.2917 8.45833 13.2917ZM8.45833 22.9583C8.13786 22.9583 7.83052 22.831 7.60391 22.6044C7.37731 22.3778 7.25 22.0705 7.25 21.75C7.25 21.4295 7.37731 21.1222 7.60391 20.8956C7.83052 20.669 8.13786 20.5417 8.45833 20.5417H20.5417C20.8621 20.5417 21.1695 20.669 21.3961 20.8956C21.6227 21.1222 21.75 21.4295 21.75 21.75C21.75 22.0705 21.6227 22.3778 21.3961 22.6044C21.1695 22.831 20.8621 22.9583 20.5417 22.9583H8.45833ZM21.75 30.2083H15.7083C15.3879 30.2083 15.0805 30.081 14.8539 29.8544C14.6273 29.6278 14.5 29.3205 14.5 29C14.5 28.6795 14.6273 28.3722 14.8539 28.1456C15.0805 27.919 15.3879 27.7917 15.7083 27.7917H21.75C22.0705 27.7917 22.3778 27.919 22.6044 28.1456C22.831 28.3722 22.9583 28.6795 22.9583 29C22.9583 29.3205 22.831 29.6278 22.6044 29.8544C22.3778 30.081 22.0705 30.2083 21.75 30.2083Z" fill="url(#paint0_linear_7_500)"/>
<path d="M7.25 29H0.766688C0.85899 29.1258 0.959202 29.2457 1.06672 29.3588L6.89088 35.1829C7.00409 35.2906 7.12404 35.3911 7.25 35.4836V29Z" fill="url(#paint1_linear_7_500)"/>
<defs>
<linearGradient id="paint0_linear_7_500" x1="14.5" y1="0" x2="14.5" y2="36.25" gradientUnits="userSpaceOnUse">
<stop stop-color="#85CA1F"/>
<stop offset="1" stop-color="#3EA90E"/>
</linearGradient>
<linearGradient id="paint1_linear_7_500" x1="14.5" y1="0" x2="14.5" y2="36.25" gradientUnits="userSpaceOnUse">
<stop stop-color="#85CA1F"/>
<stop offset="1" stop-color="#3EA90E"/>
</linearGradient>
</defs>
</svg>
