<svg width="22" height="18" viewBox="0 0 22 18" fill="none" xmlns="http://www.w3.org/2000/svg">
<path d="M21.2003 4.7327V15.5898C21.2003 16.0858 21.0033 16.5615 20.6526 16.9122C20.3018 17.263 19.8261 17.46 19.3301 17.46H1.87024C1.37423 17.46 0.89854 17.263 0.547811 16.9122C0.197082 16.5615 4.35678e-05 16.0858 4.35678e-05 15.5898V4.7327L1.87024 6.31737V15.5969H19.3301V6.31737L21.2003 4.7327Z" fill="white"/>
<path d="M21.2003 1.75611C21.1858 1.54516 21.1376 1.3379 21.0575 1.14223C20.9853 0.979853 20.8943 0.826523 20.7863 0.685385C20.5783 0.432094 20.3076 0.237677 20.0011 0.121472C19.7872 0.0386137 19.5595 -0.00257496 19.3301 0.000124602H1.87021C1.62435 -0.000819215 1.38073 0.0469101 1.1534 0.140562C0.926071 0.234213 0.719528 0.371935 0.545677 0.545787C0.371825 0.719638 0.234103 0.926181 0.140452 1.15351C0.0468 1.38084 -0.000930089 1.62446 1.37284e-05 1.87032V2.49133L9.38667 10.5003L9.47946 10.5788C9.81971 10.8326 10.2361 10.963 10.6603 10.9487C11.0845 10.9345 11.4912 10.7763 11.8136 10.5003L21.2003 2.49133V1.75611ZM10.6002 9.07984L2.14859 1.87032H19.0517L10.6002 9.07984Z" fill="white"/>
</svg>
