<svg width="46" height="47" viewBox="0 0 46 47" fill="none" xmlns="http://www.w3.org/2000/svg">
<g filter="url(#filter0_d_7_490)">
<path d="M31.1889 21.2836V3.73181C31.1889 1.68136 29.5075 0 27.4571 0H7.73181C5.68136 0 4 1.68136 4 3.73181V26.7788C4 28.8293 5.68136 30.5106 7.73181 30.5106H24.7095L31.1889 21.2836ZM17.4919 7.91472C17.4919 7.70967 17.656 7.58665 17.82 7.58665H26.0628C26.2678 7.58665 26.3909 7.75068 26.3909 7.91472V9.35003C26.3909 9.51406 26.2268 9.6781 26.0628 9.6781H17.861C17.656 9.6781 17.5329 9.51406 17.5329 9.35003V7.91472H17.4919ZM17.4919 15.0503C17.4919 14.8862 17.656 14.7222 17.82 14.7222H26.0628C26.2678 14.7222 26.3909 14.8862 26.3909 15.0503V16.4856C26.3909 16.6496 26.2268 16.8136 26.0628 16.8136H17.861C17.656 16.8136 17.5329 16.6496 17.5329 16.4856V15.0503H17.4919ZM16.0156 20.7505L12.0788 25.3025C11.8327 25.5485 11.4226 25.5485 11.1766 25.2615L8.83905 22.3498C8.634 22.1038 8.67501 21.7757 8.88006 21.5707L9.41317 21.0376C9.65923 20.8325 9.9873 20.8325 10.2334 21.0376L11.5866 22.4319L14.5803 19.4382C14.8263 19.1922 15.1954 19.1922 15.4005 19.4382L15.9336 19.9713C16.1796 20.1764 16.2206 20.5455 16.0156 20.7505ZM16.0156 13.615L12.0788 18.1669C11.8327 18.454 11.4226 18.413 11.1766 18.1669L8.83905 15.2553C8.634 15.0093 8.67501 14.6812 8.88006 14.4761L9.41317 13.943C9.65923 13.738 9.9873 13.738 10.2334 13.943L11.5866 15.3373L14.5803 12.3437C14.8263 12.0976 15.1954 12.0976 15.4005 12.3437L15.9336 12.8768C16.1796 13.0408 16.2206 13.4099 16.0156 13.615ZM16.0156 6.52041L12.0788 11.0724C11.8327 11.3595 11.4226 11.3185 11.1766 11.0724L8.83905 8.16077C8.634 7.91472 8.67501 7.58665 8.88006 7.3816L9.41317 6.84849C9.65923 6.60243 9.9873 6.60243 10.2334 6.84849L11.5866 8.20178L14.5803 5.20813C14.8263 5.00309 15.1954 5.00309 15.4005 5.20813L15.9336 5.74125C16.1796 5.90528 16.2206 6.27436 16.0156 6.52041ZM17.4919 23.5801V22.1448C17.4919 21.9398 17.656 21.8167 17.82 21.8167H26.0628C26.2678 21.8167 26.3909 21.9808 26.3909 22.1448V23.5801C26.3909 23.7852 26.2268 23.9082 26.0628 23.9082H17.861C17.656 23.9082 17.4919 23.7852 17.4919 23.5801Z" fill="url(#paint0_linear_7_490)"/>
<path d="M26.5549 31.2898L31.2709 34.6115L39.1856 23.4161L34.4286 20.0944L26.5549 31.2898Z" fill="url(#paint1_linear_7_490)"/>
<path d="M41.6052 18.659L38.0784 16.1575C37.7503 15.9115 37.2992 15.9935 37.0532 16.3215L35.5358 18.454L40.2519 21.7757L41.7692 19.6433C42.0152 19.3562 41.9332 18.9051 41.6052 18.659Z" fill="url(#paint2_linear_7_490)"/>
<path d="M24.4224 34.3244C24.2994 34.4885 24.2584 34.6935 24.2584 34.8576L24.4224 38.0973C24.4634 38.6714 24.9966 39.0815 25.5707 38.8764L28.6874 37.9332C28.8924 37.8922 29.0564 37.7692 29.1384 37.6052L30.1227 36.1698L25.4066 32.8891L24.4224 34.3244Z" fill="url(#paint3_linear_7_490)"/>
</g>
<defs>
<filter id="filter0_d_7_490" x="0" y="0" width="45.9121" height="46.9299" filterUnits="userSpaceOnUse" color-interpolation-filters="sRGB">
<feFlood flood-opacity="0" result="BackgroundImageFix"/>
<feColorMatrix in="SourceAlpha" type="matrix" values="0 0 0 0 0 0 0 0 0 0 0 0 0 0 0 0 0 0 127 0" result="hardAlpha"/>
<feOffset dy="4"/>
<feGaussianBlur stdDeviation="2"/>
<feComposite in2="hardAlpha" operator="out"/>
<feColorMatrix type="matrix" values="0 0 0 0 0 0 0 0 0 0 0 0 0 0 0 0 0 0 0.25 0"/>
<feBlend mode="normal" in2="BackgroundImageFix" result="effect1_dropShadow_7_490"/>
<feBlend mode="normal" in="SourceGraphic" in2="effect1_dropShadow_7_490" result="shape"/>
</filter>
<linearGradient id="paint0_linear_7_490" x1="22.9561" y1="0" x2="22.9561" y2="38.93" gradientUnits="userSpaceOnUse">
<stop stop-color="#2A13A8"/>
<stop offset="1" stop-color="#9520CA"/>
</linearGradient>
<linearGradient id="paint1_linear_7_490" x1="22.9561" y1="0" x2="22.9561" y2="38.93" gradientUnits="userSpaceOnUse">
<stop stop-color="#2A13A8"/>
<stop offset="1" stop-color="#9520CA"/>
</linearGradient>
<linearGradient id="paint2_linear_7_490" x1="22.9561" y1="0" x2="22.9561" y2="38.93" gradientUnits="userSpaceOnUse">
<stop stop-color="#2A13A8"/>
<stop offset="1" stop-color="#9520CA"/>
</linearGradient>
<linearGradient id="paint3_linear_7_490" x1="22.9561" y1="0" x2="22.9561" y2="38.93" gradientUnits="userSpaceOnUse">
<stop stop-color="#2A13A8"/>
<stop offset="1" stop-color="#9520CA"/>
</linearGradient>
</defs>
</svg>
