<svg width="126" height="121" viewBox="0 0 126 121" fill="none" xmlns="http://www.w3.org/2000/svg">
<g filter="url(#filter0_d_7_495)">
<path d="M79.0206 70.5389C79.1344 70.7128 79.2069 70.9104 79.2327 71.1165C79.2585 71.3227 79.2368 71.532 79.1693 71.7286C79.1019 71.9251 78.9904 72.1036 78.8434 72.2505C78.6964 72.3973 78.5179 72.5087 78.3213 72.576C75.9896 73.5631 73.2722 72.1398 71.6995 70.6812C71.0498 70.0787 70.1429 69.7344 69.2692 69.8819C67.0596 70.2551 67.1339 67.4355 69.1168 66.3917C74.3654 63.6287 77.8741 58.6575 77.8741 52.9952C77.8684 51.4804 79.5881 50.4425 80.3192 51.7692C80.3555 51.8351 80.3912 51.9013 80.4262 51.9678C81.2863 53.6006 81.7565 55.4104 81.8 57.2553C81.7628 59.0813 81.3063 60.8744 80.4658 62.496C80.3123 62.7922 80.1467 63.0812 79.9696 63.3624C78.5609 65.5991 77.4806 68.3905 79.0206 70.5389ZM75.1641 52.9952C75.3963 60.3416 67.4868 65.9999 59.5364 66.0334C56.9233 66.0444 54.1997 67.0902 51.8319 68.1954C50.4735 68.8295 48.9236 69.1055 47.5131 68.5078C47.3166 68.4404 47.1382 68.3289 46.9913 68.182C46.8445 68.0351 46.7331 67.8566 46.6657 67.6601C46.5983 67.4636 46.5767 67.2543 46.6025 67.0482C46.6283 66.8421 46.7008 66.6446 46.8145 66.4708C46.8326 66.4456 46.8507 66.4203 46.8687 66.395C48.3999 64.2435 47.3099 61.4605 45.8898 59.2342C45.697 58.9319 45.5173 58.6205 45.3516 58.3009C44.5002 56.6593 44.0378 54.844 44 52.9952C44 45.8294 50.9898 40 59.5821 40C68.1743 40 75.1641 45.8294 75.1641 52.9952ZM67.0344 55.2566C67.0344 54.8972 66.8916 54.5526 66.6375 54.2985C66.3834 54.0444 66.0387 53.9016 65.6794 53.9016H53.4847C53.1254 53.9016 52.7807 54.0444 52.5266 54.2985C52.2725 54.5526 52.1298 54.8972 52.1298 55.2566C52.1298 55.6159 52.2725 55.9606 52.5266 56.2147C52.7807 56.4688 53.1254 56.6115 53.4847 56.6115H65.6794C66.0387 56.6115 66.3834 56.4688 66.6375 56.2147C66.8916 55.9606 67.0344 55.6159 67.0344 55.2566ZM67.0344 49.8367C67.0344 49.4774 66.8916 49.1327 66.6375 48.8786C66.3834 48.6245 66.0387 48.4818 65.6794 48.4818H53.4847C53.1254 48.4818 52.7807 48.6245 52.5266 48.8786C52.2725 49.1327 52.1298 49.4774 52.1298 49.8367C52.1298 50.1961 52.2725 50.5407 52.5266 50.7948C52.7807 51.0489 53.1254 51.1917 53.4847 51.1917H65.6794C66.0387 51.1917 66.3834 51.0489 66.6375 50.7948C66.8916 50.5407 67.0344 50.1961 67.0344 49.8367Z" fill="url(#paint0_linear_7_495)"/>
</g>
<defs>
<filter id="filter0_d_7_495" x="0" y="0" width="125.8" height="120.904" filterUnits="userSpaceOnUse" color-interpolation-filters="sRGB">
<feFlood flood-opacity="0" result="BackgroundImageFix"/>
<feColorMatrix in="SourceAlpha" type="matrix" values="0 0 0 0 0 0 0 0 0 0 0 0 0 0 0 0 0 0 127 0" result="hardAlpha"/>
<feOffset dy="4"/>
<feGaussianBlur stdDeviation="22"/>
<feComposite in2="hardAlpha" operator="out"/>
<feColorMatrix type="matrix" values="0 0 0 0 0 0 0 0 0 0 0 0 0 0 0 0 0 0 0.12 0"/>
<feBlend mode="normal" in2="BackgroundImageFix" result="effect1_dropShadow_7_495"/>
<feBlend mode="normal" in="SourceGraphic" in2="effect1_dropShadow_7_495" result="shape"/>
</filter>
<linearGradient id="paint0_linear_7_495" x1="79.5291" y1="69.1374" x2="49.0158" y2="65.8905" gradientUnits="userSpaceOnUse">
<stop stop-color="#0D5CA4"/>
<stop offset="1" stop-color="#1EB6C0"/>
</linearGradient>
</defs>
</svg>
