<svg width="16" height="16" viewBox="0 0 16 16" fill="none" xmlns="http://www.w3.org/2000/svg">
<g clip-path="url(#clip0_7_22)">
<path d="M15.1648 4.46296C15.1293 3.65639 14.9988 3.10188 14.812 2.62139C14.6192 2.11136 14.3227 1.65473 13.9342 1.27513C13.5546 0.889627 13.0949 0.590073 12.5908 0.400332C12.1076 0.213487 11.5559 0.083055 10.7494 0.0474931C9.93677 0.00891943 9.6788 0 7.61784 0C5.55687 0 5.2989 0.00891943 4.48932 0.0444814C3.68275 0.0800433 3.12824 0.210591 2.64787 0.39732C2.13772 0.590073 1.68109 0.886615 1.3015 1.27513C0.915993 1.65473 0.616555 2.11437 0.426699 2.61849C0.239854 3.10188 0.109422 3.65338 0.0738602 4.45995C0.0352866 5.27255 0.0263672 5.53052 0.0263672 7.59148C0.0263672 9.65245 0.0352866 9.91042 0.0708485 10.72C0.10641 11.5266 0.236958 12.0811 0.423803 12.5616C0.616555 13.0716 0.915993 13.5282 1.3015 13.9078C1.68109 14.2933 2.14073 14.5929 2.64485 14.7826C3.12824 14.9695 3.67974 15.0999 4.48643 15.1355C5.29589 15.1712 5.55398 15.18 7.61494 15.18C9.67591 15.18 9.93388 15.1712 10.7435 15.1355C11.55 15.0999 12.1045 14.9695 12.5849 14.7826C13.6051 14.3882 14.4117 13.5816 14.8061 12.5616C14.9928 12.0782 15.1234 11.5266 15.1589 10.72C15.1945 9.91042 15.2034 9.65245 15.2034 7.59148C15.2034 5.53052 15.2004 5.27255 15.1648 4.46296ZM13.7978 10.6607C13.7652 11.4021 13.6407 11.8024 13.5369 12.0693C13.2818 12.7306 12.7569 13.2554 12.0956 13.5105C11.8287 13.6143 11.4255 13.7388 10.687 13.7714C9.88638 13.8071 9.64625 13.8159 7.62085 13.8159C5.59545 13.8159 5.35231 13.8071 4.55454 13.7714C3.81318 13.7388 3.41285 13.6143 3.14596 13.5105C2.81687 13.3889 2.51732 13.1961 2.27418 12.9441C2.02212 12.6979 1.82936 12.4014 1.70774 12.0723C1.60395 11.8054 1.47942 11.4021 1.44687 10.6637C1.41119 9.86305 1.40239 9.6228 1.40239 7.59739C1.40239 5.57198 1.41119 5.32884 1.44687 4.53119C1.47942 3.78983 1.60395 3.3895 1.70774 3.12261C1.82936 2.79341 2.02212 2.49397 2.27719 2.25071C2.52323 1.99865 2.81977 1.8059 3.14898 1.68438C3.41586 1.58059 3.81921 1.45607 4.55755 1.4234C5.35821 1.38784 5.59846 1.37892 7.62375 1.37892C9.65216 1.37892 9.89229 1.38784 10.6901 1.4234C11.4314 1.45607 11.8317 1.58059 12.0986 1.68438C12.4277 1.8059 12.7273 1.99865 12.9704 2.25071C13.2225 2.49686 13.4152 2.79341 13.5369 3.12261C13.6407 3.3895 13.7652 3.79273 13.7978 4.53119C13.8334 5.33185 13.8423 5.57198 13.8423 7.59739C13.8423 9.6228 13.8334 9.86003 13.7978 10.6607Z" fill="white"/>
<path d="M7.61828 3.69189C5.46545 3.69189 3.71875 5.43848 3.71875 7.59142C3.71875 9.74437 5.46545 11.491 7.61828 11.491C9.77122 11.491 11.5178 9.74437 11.5178 7.59142C11.5178 5.43848 9.77122 3.69189 7.61828 3.69189ZM7.61828 10.121C6.22164 10.121 5.08875 8.98818 5.08875 7.59142C5.08875 6.19466 6.22164 5.0619 7.61828 5.0619C9.01504 5.0619 10.1478 6.19466 10.1478 7.59142C10.1478 8.98818 9.01504 10.121 7.61828 10.121Z" fill="white"/>
<path d="M12.5826 3.53781C12.5826 4.04054 12.1749 4.44817 11.6721 4.44817C11.1694 4.44817 10.7617 4.04054 10.7617 3.53781C10.7617 3.03496 11.1694 2.62744 11.6721 2.62744C12.1749 2.62744 12.5826 3.03496 12.5826 3.53781Z" fill="white"/>
</g>
<defs>
<clipPath id="clip0_7_22">
<rect width="15.18" height="15.18" fill="white"/>
</clipPath>
</defs>
</svg>
