<svg width="37" height="39" viewBox="0 0 37 39" fill="none" xmlns="http://www.w3.org/2000/svg">
<path d="M28.345 16.3685C28.5667 15.9737 28.8395 15.6099 29.1564 15.2866C30.1949 14.2819 31.5636 13.6894 33.0069 13.6197C34.4502 13.55 35.8695 14.0079 37 14.908C36.0812 10.6846 33.745 6.90278 30.3796 4.19081C27.0142 1.47884 22.8221 0 18.5 0C14.1779 0 9.98584 1.47884 6.62043 4.19081C3.25501 6.90278 0.918815 10.6846 0 14.908C1.06203 14.0665 2.37746 13.6089 3.73246 13.6097C5.2438 13.6055 6.69795 14.1872 7.78947 15.2325C8.11169 15.5843 8.40137 15.9645 8.65497 16.3685C8.8766 15.9737 9.14943 15.6099 9.46637 15.2866C10.5575 14.2247 12.0171 13.6261 13.5396 13.616C15.062 13.6059 16.5294 14.1852 17.6345 15.2325C17.9567 15.5843 18.2464 15.9645 18.5 16.3685C18.7216 15.9737 18.9945 15.6099 19.3114 15.2866C20.4025 14.2247 21.8621 13.6261 23.3846 13.616C24.9071 13.6059 26.3745 14.1852 27.4795 15.2325C27.8179 15.5704 28.1091 15.9525 28.345 16.3685Z" fill="url(#paint0_linear_7_510)"/>
<path d="M30.5629 24.4284C29.2959 24.4177 28.0544 24.7843 26.9964 25.4816C25.9385 26.1788 25.112 27.1752 24.6222 28.3437C24.1324 29.5122 24.0014 30.8001 24.246 32.0433C24.4906 33.2865 25.0996 34.4288 25.9955 35.3247C26.8914 36.2207 28.0337 36.8297 29.2769 37.0742C30.5201 37.3188 31.808 37.1878 32.9765 36.698C34.1451 36.2082 35.1414 35.3817 35.8386 34.3238C36.5359 33.2659 36.9025 32.0244 36.8918 30.7574C36.8777 29.0832 36.2063 27.4816 35.0225 26.2977C33.8386 25.1139 32.237 24.4426 30.5629 24.4284ZM34.5117 29.2428L30.0219 33.5161C29.8679 33.6418 29.6792 33.7173 29.481 33.7325C29.2549 33.7236 29.0413 33.6265 28.886 33.462L26.5599 31.0278C26.4428 30.8716 26.3859 30.6783 26.3997 30.4835C26.4135 30.2887 26.4972 30.1054 26.6353 29.9672C26.7734 29.8291 26.9567 29.7455 27.1515 29.7316C27.3464 29.7178 27.5397 29.7747 27.6959 29.8919L29.481 31.7851L33.4298 28.0527C33.5915 27.9411 33.7882 27.892 33.9834 27.9144C34.1785 27.9368 34.3589 28.0293 34.4911 28.1747C34.6232 28.3201 34.6982 28.5084 34.702 28.7048C34.7057 28.9013 34.6381 29.0924 34.5117 29.2428Z" fill="url(#paint1_linear_7_510)"/>
<path d="M17.4181 34.003C17.4181 34.3937 17.3412 34.7806 17.1917 35.1415C17.0421 35.5025 16.823 35.8305 16.5467 36.1067C16.2705 36.383 15.9425 36.6021 15.5815 36.7517C15.2206 36.9012 14.8337 36.9781 14.443 36.9781C14.0523 36.9781 13.6654 36.9012 13.3044 36.7517C12.9435 36.6021 12.6155 36.383 12.3392 36.1067C12.063 35.8305 11.8438 35.5025 11.6943 35.1415C11.5448 34.7806 11.4678 34.3937 11.4678 34.003V32.1638C11.4678 31.9486 11.3824 31.7422 11.2302 31.5901C11.078 31.4379 10.8716 31.3524 10.6564 31.3524C10.4412 31.3524 10.2349 31.4379 10.0827 31.5901C9.93052 31.7422 9.84503 31.9486 9.84503 32.1638V34.003C9.84503 34.6068 9.96396 35.2047 10.195 35.7625C10.4261 36.3204 10.7648 36.8273 11.1917 37.2542C11.6187 37.6812 12.1256 38.0199 12.6834 38.2509C13.2413 38.482 13.8392 38.6009 14.443 38.6009C15.0468 38.6009 15.6447 38.482 16.2025 38.2509C16.7604 38.0199 17.2673 37.6812 17.6942 37.2542C18.1212 36.8273 18.4599 36.3204 18.6909 35.7625C18.922 35.2047 19.0409 34.6068 19.0409 34.003V18.7486H17.4181V34.003Z" fill="url(#paint2_linear_7_510)"/>
<defs>
<linearGradient id="paint0_linear_7_510" x1="18.5" y1="0" x2="18.5" y2="38.6009" gradientUnits="userSpaceOnUse">
<stop stop-color="#5F49F3"/>
<stop offset="1" stop-color="#2614C9"/>
</linearGradient>
<linearGradient id="paint1_linear_7_510" x1="18.5" y1="0" x2="18.5" y2="38.6009" gradientUnits="userSpaceOnUse">
<stop stop-color="#5F49F3"/>
<stop offset="1" stop-color="#2614C9"/>
</linearGradient>
<linearGradient id="paint2_linear_7_510" x1="18.5" y1="0" x2="18.5" y2="38.6009" gradientUnits="userSpaceOnUse">
<stop stop-color="#5F49F3"/>
<stop offset="1" stop-color="#2614C9"/>
</linearGradient>
</defs>
</svg>
