<svg width="34" height="43" viewBox="0 0 34 43" fill="none" xmlns="http://www.w3.org/2000/svg">
<path d="M30.0313 31.7896L25.4479 35.218L17.0388 36.6526L15.2216 35.7477L15.7808 35.1885L22.8803 34.5926C23.4663 34.5392 24.0108 34.2675 24.406 33.8314C24.8012 33.3954 25.0181 32.8268 25.0138 32.2384C25.0138 31.6623 24.8052 31.1057 24.4265 30.6715C24.0478 30.2373 23.5246 29.955 22.9539 29.8768L13.3382 28.5599C13.2531 28.5448 13.1659 28.5448 13.0808 28.5599L6.54038 30.0313H0.7357C0.540581 30.0313 0.353452 30.1088 0.215482 30.2468C0.0775112 30.3847 0 30.5719 0 30.767V38.8597C0 39.0548 0.0775112 39.2419 0.215482 39.3799C0.353452 39.5179 0.540581 39.5954 0.7357 39.5954H5.03219L13.7429 42.5382C14.0666 42.6412 13.3824 42.6633 26.6103 40.3311C26.7446 40.3117 26.87 40.2528 26.9708 40.1619L32.7019 35.0708C33.1089 34.7088 33.3603 34.2034 33.4034 33.6603C33.4465 33.1172 33.278 32.5785 32.9332 32.1568C32.5884 31.735 32.0939 31.4628 31.5531 31.3972C31.0123 31.3315 30.467 31.4774 30.0313 31.8043V31.7896Z" fill="url(#paint0_linear_7_505)"/>
<path d="M22.7258 5.52511C22.497 5.54563 22.2842 5.65101 22.1293 5.82051C21.9743 5.99002 21.8883 6.21138 21.8883 6.44106C21.8883 6.67073 21.9743 6.89209 22.1293 7.0616C22.2842 7.2311 22.497 7.33648 22.7258 7.357V5.52511Z" fill="url(#paint1_linear_7_505)"/>
<path d="M25.0874 9.74803C25.0856 9.51042 24.9919 9.28272 24.826 9.11265C24.66 8.94259 24.4347 8.84336 24.1972 8.83576V10.6677C24.4359 10.66 24.6624 10.5598 24.8285 10.3881C24.9947 10.2165 25.0875 9.98692 25.0874 9.74803Z" fill="url(#paint2_linear_7_505)"/>
<path d="M22.7258 17.6568C24.4221 17.6574 26.0826 17.1693 27.5088 16.2509C28.935 15.3325 30.0663 14.0226 30.7676 12.4781C31.4688 10.9335 31.7102 9.21961 31.463 7.54144C31.2157 5.86326 30.4902 4.29186 29.3732 3.01521C28.2563 1.73856 26.7952 0.810718 25.1647 0.342691C23.5343 -0.125336 21.8035 -0.113734 20.1795 0.376108C18.5555 0.86595 17.1069 1.81329 16.0072 3.1048C14.9074 4.39631 14.2031 5.9773 13.9783 7.65864C16.1032 8.29215 17.9668 9.59443 19.2923 11.3719C20.6178 13.1494 21.3343 15.3071 21.3353 17.5244C21.7945 17.6059 22.2595 17.6502 22.7258 17.6568ZM20.3642 9.74803H21.8356C21.8355 9.98692 21.9283 10.2165 22.0945 10.3881C22.2606 10.5598 22.487 10.66 22.7258 10.6677V8.82841C22.1155 8.79452 21.5414 8.52822 21.1214 8.08423C20.7014 7.64023 20.4673 7.05225 20.4673 6.44106C20.4673 5.82987 20.7014 5.24188 21.1214 4.79789C21.5414 4.35389 22.1155 4.0876 22.7258 4.05371V2.8913H24.1972V4.05371C24.8249 4.06143 25.4245 4.31574 25.8663 4.76172C26.3082 5.20771 26.5569 5.80958 26.5588 6.43738H25.0874C25.0856 6.19977 24.9919 5.97207 24.826 5.802C24.66 5.63194 24.4347 5.53271 24.1972 5.52511V7.36436C24.8074 7.39825 25.3815 7.66454 25.8016 8.10854C26.2216 8.55254 26.4556 9.14052 26.4556 9.75171C26.4556 10.3629 26.2216 10.9509 25.8016 11.3949C25.3815 11.8389 24.8074 12.1052 24.1972 12.1391V13.3015H22.7258V12.1391C22.0968 12.1313 21.4961 11.876 21.0541 11.4284C20.612 10.9809 20.3641 10.3771 20.3642 9.74803Z" fill="url(#paint3_linear_7_505)"/>
<path d="M9.40961 15.8691C9.40761 16.1085 9.49983 16.3391 9.66637 16.5112C9.83291 16.6832 10.0604 16.7829 10.2998 16.7887V14.9568C10.0617 14.9626 9.83529 15.0612 9.66895 15.2317C9.50262 15.4021 9.40954 15.6309 9.40961 15.8691Z" fill="url(#paint4_linear_7_505)"/>
<path d="M11.7712 20.092C12.0141 20.092 12.2471 19.9955 12.4189 19.8237C12.5907 19.6519 12.6872 19.419 12.6872 19.176C12.6872 18.9331 12.5907 18.7001 12.4189 18.5284C12.2471 18.3566 12.0141 18.2601 11.7712 18.2601V20.092Z" fill="url(#paint5_linear_7_505)"/>
<path d="M11.0355 8.69598C9.28941 8.69598 7.58253 9.21376 6.13071 10.1838C4.67888 11.1539 3.54732 12.5327 2.87912 14.1459C2.21092 15.7591 2.03609 17.5342 2.37674 19.2467C2.71738 20.9593 3.55821 22.5323 4.79288 23.767C6.02756 25.0017 7.60063 25.8425 9.31317 26.1832C11.0257 26.5238 12.8008 26.349 14.414 25.6808C16.0272 25.0126 17.406 23.881 18.3761 22.4292C19.3461 20.9774 19.8639 19.2705 19.8639 17.5244C19.8639 15.1829 18.9338 12.9374 17.2781 11.2818C15.6225 9.62611 13.3769 8.69598 11.0355 8.69598ZM14.1328 19.1797C14.1329 19.8088 13.885 20.4125 13.4429 20.8601C13.0009 21.3077 12.4002 21.563 11.7712 21.5707V22.7258H10.2998V21.5707C9.67078 21.563 9.07015 21.3077 8.62809 20.8601C8.18603 20.4125 7.93816 19.8088 7.93821 19.1797H9.40961C9.40954 19.4179 9.50262 19.6466 9.66896 19.8171C9.83529 19.9876 10.0617 20.0862 10.2998 20.092V18.2601C9.66567 18.2601 9.0575 18.0082 8.60909 17.5598C8.16069 17.1114 7.90878 16.5032 7.90878 15.8691C7.90878 15.2349 8.16069 14.6268 8.60909 14.1783C9.0575 13.7299 9.66567 13.478 10.2998 13.478V12.323H11.7712V13.478C12.4002 13.4858 13.0009 13.7411 13.4429 14.1887C13.885 14.6362 14.1329 15.24 14.1328 15.8691H12.6614C12.6615 15.6309 12.5684 15.4021 12.4021 15.2317C12.2357 15.0612 12.0093 14.9626 11.7712 14.9568V16.7887C12.4002 16.7964 13.0009 17.0518 13.4429 17.4993C13.885 17.9469 14.1329 18.5506 14.1328 19.1797Z" fill="url(#paint6_linear_7_505)"/>
<defs>
<linearGradient id="paint0_linear_7_505" x1="16.705" y1="0" x2="16.705" y2="42.5727" gradientUnits="userSpaceOnUse">
<stop stop-color="#F17215"/>
<stop offset="1" stop-color="#DAB117"/>
</linearGradient>
<linearGradient id="paint1_linear_7_505" x1="16.705" y1="0" x2="16.705" y2="42.5727" gradientUnits="userSpaceOnUse">
<stop stop-color="#F17215"/>
<stop offset="1" stop-color="#DAB117"/>
</linearGradient>
<linearGradient id="paint2_linear_7_505" x1="16.705" y1="0" x2="16.705" y2="42.5727" gradientUnits="userSpaceOnUse">
<stop stop-color="#F17215"/>
<stop offset="1" stop-color="#DAB117"/>
</linearGradient>
<linearGradient id="paint3_linear_7_505" x1="16.705" y1="0" x2="16.705" y2="42.5727" gradientUnits="userSpaceOnUse">
<stop stop-color="#F17215"/>
<stop offset="1" stop-color="#DAB117"/>
</linearGradient>
<linearGradient id="paint4_linear_7_505" x1="16.705" y1="0" x2="16.705" y2="42.5727" gradientUnits="userSpaceOnUse">
<stop stop-color="#F17215"/>
<stop offset="1" stop-color="#DAB117"/>
</linearGradient>
<linearGradient id="paint5_linear_7_505" x1="16.705" y1="0" x2="16.705" y2="42.5727" gradientUnits="userSpaceOnUse">
<stop stop-color="#F17215"/>
<stop offset="1" stop-color="#DAB117"/>
</linearGradient>
<linearGradient id="paint6_linear_7_505" x1="16.705" y1="0" x2="16.705" y2="42.5727" gradientUnits="userSpaceOnUse">
<stop stop-color="#F17215"/>
<stop offset="1" stop-color="#DAB117"/>
</linearGradient>
</defs>
</svg>
