<svg width="16" height="15" viewBox="0 0 16 15" fill="none" xmlns="http://www.w3.org/2000/svg">
<rect y="4.85889" width="3.81004" height="9.71835" fill="white"/>
<path d="M14.1888 5.94681C13.488 5.22157 12.5611 4.85889 11.4088 4.85889C10.9842 4.85889 10.5982 4.9084 10.2511 5.0075C9.90403 5.10653 9.61092 5.24548 9.37159 5.4244C9.13241 5.60333 8.94191 5.76943 8.80049 5.92271C8.66601 6.0683 8.5345 6.2379 8.40618 6.42975V5.07917H5.08008L5.09028 5.53928C5.09711 5.84607 5.10047 6.79166 5.10047 8.37618C5.10047 9.96084 5.09375 12.0278 5.08022 14.5772H8.40618V9.27702C8.40618 8.95123 8.44304 8.69251 8.51733 8.50066C8.65896 8.17463 8.87272 7.90168 9.15932 7.68132C9.44588 7.4607 9.80128 7.35049 10.226 7.35049C10.8054 7.35049 11.2319 7.54057 11.5049 7.92074C11.7777 8.30089 11.9142 8.82645 11.9142 9.49738V14.5769H15.2402V9.13341C15.2399 7.73396 14.8897 6.67182 14.1888 5.94681Z" fill="white"/>
<path d="M1.9152 0C1.34551 0 0.8839 0.172403 0.530275 0.516872C0.176686 0.861417 0 1.2964 0 1.82223C0 2.34071 0.171601 2.77419 0.514839 3.12221C0.857968 3.47026 1.3111 3.64438 1.87398 3.64438H1.89457C2.47126 3.64438 2.9364 3.47041 3.28988 3.12221C3.64336 2.77419 3.81666 2.34086 3.80984 1.82223C3.80299 1.29644 3.62782 0.861417 3.28469 0.516872C2.9416 0.172253 2.48493 0 1.9152 0Z" fill="white"/>
</svg>
