<svg width="25" height="25" viewBox="0 0 25 25" fill="none" xmlns="http://www.w3.org/2000/svg">
<path d="M24.3694 18.7003C23.691 16.9126 21.3128 15.6198 20.0199 15.1409C19.7176 15.0273 19.388 15.008 19.0745 15.0857C18.761 15.1633 18.4785 15.3343 18.2642 15.5759L16.5603 17.4513C16.522 17.4957 16.4749 17.5317 16.4221 17.5571C16.3692 17.5825 16.3117 17.5968 16.2531 17.599C16.194 17.6033 16.1347 17.5945 16.0795 17.5731C16.0243 17.5517 15.9746 17.5183 15.9339 17.4753L7.09136 8.62078C7.04963 8.57913 7.01707 8.52922 6.99577 8.47425C6.97447 8.41927 6.9649 8.36045 6.96766 8.30156C6.97018 8.24009 6.9857 8.17985 7.01322 8.12482C7.04073 8.06979 7.07961 8.02123 7.12728 7.98233L8.98276 6.29843C9.22494 6.08539 9.3969 5.80398 9.47597 5.49127C9.55503 5.17856 9.5375 4.84924 9.42569 4.54669C8.94286 3.24585 7.65 0.871626 5.86235 0.193275C5.47591 0.0415247 5.0605 -0.0221722 4.64634 0.00681866C4.23219 0.0358095 3.8297 0.156759 3.46817 0.360868C3.15416 0.534305 2.86771 0.753513 2.61824 1.01129L2.0995 1.51007C0.921427 2.61875 0.182005 4.11459 0.0165649 5.72383C-0.0799299 7.20875 0.246602 8.6906 0.958275 9.99744C2.12344 12.3318 4.2383 14.6781 7.05944 17.5032C9.88058 20.3283 12.2468 22.4392 14.5652 23.6043C15.7052 24.2123 16.9725 24.5431 18.2642 24.57C18.4611 24.57 18.6552 24.5607 18.8468 24.5421C20.4526 24.3758 21.9453 23.638 23.0526 22.4631L23.5713 21.9444C23.829 21.6964 24.0482 21.4112 24.2217 21.0984C24.4232 20.7349 24.541 20.3309 24.5666 19.916C24.5921 19.5012 24.5247 19.0858 24.3694 18.7003ZM4.84482 1.19484C5.04843 1.19662 5.24997 1.23585 5.43938 1.31056C6.72825 1.80136 7.8575 3.76459 8.30441 4.96567C8.33067 5.04178 8.33329 5.12406 8.31192 5.20168C8.29056 5.27931 8.24621 5.34866 8.1847 5.40061L7.61409 5.91935L3.50009 1.81733C3.6527 1.66149 3.82589 1.52724 4.01484 1.4183C4.26833 1.27525 4.55378 1.19839 4.84482 1.19484ZM18.7311 23.349C17.4678 23.4241 16.209 23.1405 15.0999 22.531C12.9092 21.4416 10.6387 19.3946 7.88942 16.6732C5.14011 13.9518 3.10107 11.6654 2.0157 9.49067C1.40635 8.38153 1.12279 7.12278 1.19769 5.8595C1.32186 4.66301 1.83975 3.5416 2.67011 2.67125L6.72825 6.72539L6.32922 7.08452C6.15807 7.23082 6.01914 7.41104 5.92119 7.61377C5.82324 7.8165 5.76841 8.03735 5.76016 8.26235C5.75191 8.48735 5.79042 8.71162 5.87326 8.92099C5.9561 9.13035 6.08146 9.32025 6.24143 9.4787L15.0959 18.3172C15.2532 18.474 15.441 18.597 15.6476 18.6786C15.8542 18.7602 16.0754 18.7986 16.2974 18.7915C16.5194 18.7844 16.7377 18.7319 16.9387 18.6373C17.1397 18.5427 17.3192 18.408 17.4661 18.2414L17.8332 17.8424L21.8914 21.8925C21.0267 22.7129 19.9162 23.2261 18.7311 23.353V23.349ZM23.1443 20.5358C23.0357 20.7262 22.9014 20.9007 22.7453 21.0545L18.6433 16.9485L19.166 16.3739C19.2203 16.3159 19.2907 16.2753 19.3682 16.2576C19.4457 16.2398 19.5268 16.2456 19.6009 16.2742C20.798 16.7211 22.7613 17.8503 23.2521 19.1392C23.3398 19.365 23.376 19.6076 23.358 19.8492C23.3401 20.0908 23.2684 20.3254 23.1483 20.5358H23.1443Z" fill="white"/>
</svg>
