<svg width="21" height="21" viewBox="0 0 21 21" fill="none" xmlns="http://www.w3.org/2000/svg">
<path d="M20.2933 18.8109L16.4851 15.0027C19.3988 11.3735 19.1176 6.0062 15.795 2.70918C14.0571 0.971216 11.7313 0 9.25211 0C6.77295 0 4.4727 0.971216 2.70918 2.70918C0.971216 4.44715 0 6.77295 0 9.25211C0 11.7313 0.971216 14.0315 2.70918 15.795C4.44715 17.533 6.77295 18.5042 9.25211 18.5042C11.3479 18.5042 13.3926 17.7886 15.0283 16.4851L18.8365 20.2933C19.0409 20.4978 19.2965 20.6 19.5521 20.6C19.8333 20.6 20.0888 20.4978 20.2677 20.2933C20.6767 19.8588 20.6767 19.2199 20.2933 18.8109ZM16.4596 9.22655C16.4596 11.1434 15.7184 12.9581 14.3638 14.3127C13.0092 15.6672 11.1945 16.4084 9.27767 16.4084C7.36079 16.4084 5.54615 15.6672 4.19156 14.3127C2.83697 12.9581 2.09578 11.1434 2.09578 9.22655C2.09578 7.30968 2.83697 5.49504 4.19156 4.14045C5.54615 2.78586 7.36079 2.04466 9.27767 2.04466C11.1945 2.04466 13.0092 2.78586 14.3638 4.14045C15.7184 5.49504 16.4596 7.30968 16.4596 9.22655Z" fill="white"/>
</svg>
