<svg width="63" height="70" viewBox="0 0 63 70" fill="none" xmlns="http://www.w3.org/2000/svg">
<path d="M13.839 59.1393L2.76781 53.6036L8.65304 50.661C9.2066 50.3697 9.43968 49.6996 9.14833 49.146C8.85698 48.5925 8.18688 48.3594 7.63332 48.6507L1.28193 51.8264C0.466157 52.2343 0 52.8753 0 53.6036C0 54.332 0.466157 55.0021 1.28193 55.41L12.7902 61.1787C12.965 61.2661 13.1107 61.2952 13.2855 61.2952C13.6934 61.2952 14.1012 61.0622 14.3052 60.6834C14.6257 60.1007 14.3926 59.4306 13.839 59.1393Z" fill="#29AEFD"/>
<path d="M61.7366 51.8264L55.3853 48.6507C54.8317 48.3594 54.1616 48.5925 53.8702 49.146C53.5789 49.6996 53.812 50.3697 54.3655 50.661L60.2508 53.6036L32.5727 67.4427C32.0191 67.7049 30.9994 67.7049 30.4459 67.4427L19.229 61.8197C18.6754 61.5283 18.0053 61.7614 17.714 62.315C17.4226 62.8685 17.6557 63.5386 18.2092 63.83L29.4261 69.453C30.0088 69.7443 30.7663 69.89 31.4947 69.89C32.2231 69.89 32.9806 69.7443 33.5633 69.453L61.7075 55.3809C62.5233 54.973 62.9894 54.332 62.9894 53.6036C63.0186 52.8753 62.5524 52.2343 61.7366 51.8264Z" fill="#29AEFD"/>
<path d="M13.839 46.4656L2.76781 40.93L8.65304 37.9874C9.2066 37.6961 9.43968 37.026 9.14833 36.4724C8.85698 35.9188 8.18688 35.6858 7.63332 35.9771L1.28193 39.1528C0.466157 39.5607 0 40.2017 0 40.93C0 41.6584 0.466157 42.3285 1.28193 42.7364L12.7902 48.5051C12.965 48.5925 13.1107 48.6216 13.2855 48.6216C13.6934 48.6216 14.1012 48.3885 14.3052 48.0098C14.6257 47.3979 14.3926 46.7278 13.839 46.4656Z" fill="#29AEFD"/>
<path d="M61.7366 39.1237L55.3853 35.948C54.8317 35.6566 54.1616 35.8897 53.8702 36.4433C53.5789 36.9968 53.812 37.6669 54.3655 37.9583L60.2508 40.9009L32.5727 54.7399C32.0191 55.0021 30.9994 55.0021 30.4459 54.7399L19.229 49.1169C18.6754 48.8256 18.0053 49.0586 17.714 49.6122C17.4226 50.1658 17.6557 50.8358 18.2092 51.1272L29.4261 56.7502C30.0088 57.0416 30.7663 57.1872 31.4947 57.1872C32.2231 57.1872 32.9806 57.0416 33.5633 56.7502L61.7075 42.6781C62.5233 42.2702 62.9894 41.6293 62.9894 40.9009C63.0186 40.2016 62.5524 39.5316 61.7366 39.1237Z" fill="#29AEFD"/>
<path d="M34.583 2.23902C35.6319 2.44297 36.6516 2.79258 37.613 3.2296L37.4382 7.86204C37.4382 8.21165 37.5839 8.53214 37.8461 8.76521C38.1083 8.99829 38.4579 9.0857 38.8075 8.99829L43.5565 7.97858C44.0227 8.59041 44.4306 9.26051 44.8093 9.95974L41.4879 13.6307C41.2549 13.8929 41.1383 14.2426 41.2257 14.5922C41.284 14.9418 41.488 15.2331 41.8084 15.3788L46.5283 17.8844C46.4991 18.5545 46.4117 19.2246 46.2661 19.8947L40.8761 20.6522C40.2643 20.7396 39.8273 21.2932 39.9147 21.9341C40.0021 22.4877 40.4682 22.8956 41.0218 22.8956C41.0801 22.8956 41.1383 22.8956 41.1675 22.8956L47.344 22.0507C47.8102 21.9924 48.1598 21.6428 48.2764 21.2058C48.5968 19.9238 48.7717 18.5836 48.8008 17.2434C48.8008 16.8064 48.5677 16.4277 48.189 16.2237L44.1101 14.0677L46.9944 10.8921C47.2858 10.5424 47.3732 10.0763 47.1692 9.66839C46.5574 8.35733 45.7708 7.13367 44.8676 6.02655C44.6054 5.70606 44.1684 5.56039 43.7605 5.64779L39.7399 6.52184L39.8855 2.58864C39.9147 2.15162 39.6525 1.74373 39.2737 1.53979C37.9335 0.869687 36.5059 0.374395 35.02 0.0539127C34.4082 -0.0626265 33.8255 0.316126 33.6798 0.927956C33.5924 1.51065 33.9712 2.09335 34.583 2.23902Z" fill="#29AEFD"/>
<path d="M18.588 27.3532C18.4132 27.7611 18.5006 28.2273 18.7919 28.5477C19.6077 29.4509 20.54 30.2667 21.5597 30.9951C21.9385 31.2573 22.4338 31.2864 22.8125 31.0242L27.1828 28.2855L28.8143 33.3258C28.96 33.7629 29.3387 34.0542 29.7758 34.1125C30.3876 34.1707 30.9703 34.1999 31.553 34.1999C32.1357 34.1999 32.7475 34.1707 33.3302 34.1125C33.7672 34.0542 34.146 33.7629 34.2917 33.3258L35.9232 28.2855L40.2934 31.0242C40.6722 31.2573 41.1675 31.2573 41.5462 30.9951C42.5659 30.2667 43.4982 29.4509 44.314 28.5477C44.7219 28.0816 44.6928 27.3823 44.2266 26.9453C43.7605 26.5374 43.0612 26.5666 42.6242 27.0327C42.0706 27.6446 41.4588 28.1981 40.8178 28.7225L35.8649 25.6051C35.5736 25.4303 35.1948 25.372 34.8744 25.4886C34.5539 25.6051 34.2917 25.8673 34.1751 26.1878L32.3396 31.8982C31.7861 31.9274 31.2325 31.9274 30.6789 31.8982L28.9017 26.217C28.7852 25.8965 28.5521 25.6343 28.2025 25.5177C27.882 25.4012 27.5032 25.4303 27.2119 25.6343L22.259 28.7517C21.7928 28.3729 21.3558 27.9942 20.9479 27.5863L23.133 22.2255C23.2496 21.905 23.2496 21.5263 23.0748 21.2349C22.9 20.9436 22.6086 20.7396 22.259 20.6813L16.869 19.9238C16.7234 19.2537 16.6651 18.5836 16.6068 17.9135L21.3267 15.4079C21.6472 15.2331 21.8511 14.9418 21.9094 14.6213C21.9676 14.2717 21.8802 13.9221 21.6472 13.6599L18.2967 9.93061C18.6754 9.23137 19.0833 8.59041 19.5494 7.97858L24.3276 8.99829C24.6772 9.0857 25.0268 8.99829 25.289 8.76521C25.5512 8.53214 25.6969 8.21165 25.6969 7.86204L25.4929 3.20047C26.2505 2.85085 27.0371 2.58864 27.8529 2.3847L30.6789 5.99741C31.0577 6.4927 31.7569 6.58011 32.2522 6.20135C32.7475 5.8226 32.8349 5.12337 32.4562 4.62807L29.1931 0.432665C28.9309 0.0830476 28.4938 -0.0626264 28.0859 0.024778C26.6001 0.345261 25.1725 0.840552 23.8323 1.51065C23.4535 1.7146 23.1913 2.12248 23.2204 2.5595L23.3661 6.4927L19.3455 5.61866C18.9376 5.53125 18.5006 5.67693 18.2384 5.99741C17.3352 7.10453 16.5777 8.32819 15.9367 9.63926C15.7328 10.0471 15.8202 10.5424 16.1115 10.8629L18.9959 14.0386L14.917 16.1946C14.5383 16.3985 14.3052 16.7773 14.3052 17.2143C14.3343 18.5545 14.5091 19.8947 14.8296 21.1766C14.9462 21.6137 15.3249 21.9633 15.7619 22.0215L20.4818 22.6625L18.588 27.3532Z" fill="#29AEFD"/>
<path d="M26.7457 16.923C26.7457 19.5742 28.9017 21.7302 31.553 21.7302C34.2043 21.7302 36.3602 19.5742 36.3602 16.923C36.3602 14.2717 34.2043 12.1157 31.553 12.1157C28.9017 12.1157 26.7457 14.2717 26.7457 16.923ZM34.1168 16.923C34.1168 18.3214 32.9806 19.4868 31.553 19.4868C30.1254 19.4868 28.9891 18.3506 28.9891 16.923C28.9891 15.5245 30.1254 14.3591 31.553 14.3591C32.9806 14.3591 34.1168 15.5245 34.1168 16.923Z" fill="#29AEFD"/>
<path d="M1.3402 30.2958L12.8484 36.0645C13.0233 36.1519 13.1981 36.181 13.3437 36.181C13.7516 36.181 14.1595 35.948 14.3635 35.5692C14.6548 35.0157 14.4217 34.3456 13.8682 34.0542L2.79694 28.5186L8.68217 25.576C9.23573 25.2846 9.46881 24.6145 9.17746 24.061C8.88611 23.5074 8.21601 23.2743 7.66245 23.5657L1.31107 26.7122C0.495291 27.1201 0.0582695 27.7611 0.0582695 28.4895C0.0582695 29.247 0.524426 29.8879 1.3402 30.2958Z" fill="#29AEFD"/>
<path d="M54.3655 25.576L60.2508 28.5186L32.5727 42.3576C32.0191 42.6198 30.9994 42.6198 30.4459 42.3576L19.229 36.7346C18.6754 36.4433 18.0053 36.6763 17.714 37.2299C17.4226 37.7835 17.6557 38.4536 18.2092 38.7449L29.4261 44.3679C30.0088 44.6593 30.7663 44.805 31.4947 44.805C32.2231 44.805 32.9806 44.6593 33.5633 44.3679L61.7075 30.2958C62.5233 29.8879 62.9894 29.247 62.9894 28.5186C62.9894 27.7902 62.5233 27.1201 61.7075 26.7414L55.3561 23.5657C54.8026 23.2743 54.1325 23.5074 53.8411 24.061C53.608 24.6145 53.812 25.2846 54.3655 25.576Z" fill="#29AEFD"/>
</svg>
