<svg width="58" height="63" viewBox="0 0 58 63" fill="none" xmlns="http://www.w3.org/2000/svg">
<path d="M56.7003 22.6798C57.0345 22.6798 57.355 22.547 57.5913 22.3107C57.8276 22.0744 57.9603 21.7539 57.9603 21.4198V13.8597C57.9603 13.6179 57.8906 13.3812 57.7597 13.1779C57.6288 12.9746 57.4421 12.8132 57.222 12.7131L29.5018 0.113052C29.338 0.0385487 29.1601 0 28.9802 0C28.8002 0 28.6223 0.0385487 28.4585 0.113052L0.738364 12.7131C0.518238 12.8132 0.331572 12.9746 0.200646 13.1779C0.0697206 13.3812 6.69604e-05 13.6179 0 13.8597V21.4198C0 21.7539 0.132751 22.0744 0.369048 22.3107C0.605345 22.547 0.925832 22.6798 1.26001 22.6798H5.04003V50.3999H4.61667C3.39266 50.4013 2.21917 50.8881 1.35366 51.7536C0.48816 52.6191 0.00133407 53.7926 0 55.0166V61.74C0 62.0742 0.132751 62.3947 0.369048 62.631C0.605345 62.8673 0.925832 63 1.26001 63H56.7003C57.0345 63 57.355 62.8673 57.5913 62.631C57.8276 62.3947 57.9603 62.0742 57.9603 61.74V55.0166C57.959 53.7926 57.4722 52.6191 56.6067 51.7536C55.7412 50.8881 54.5677 50.4013 53.3437 50.3999H52.9203V22.6798H56.7003ZM2.52001 14.6712L28.9802 2.64315L55.4403 14.6712V20.1598H2.52001V14.6712ZM37.8002 50.3999V36.5399C37.8002 34.2006 36.871 31.9572 35.2169 30.3031C33.5628 28.6491 31.3194 27.7198 28.9802 27.7198C26.6409 27.7198 24.3975 28.6491 22.7434 30.3031C21.0894 31.9572 20.1601 34.2006 20.1601 36.5399V50.3999H15.1201V22.6798H42.8402V50.3999H37.8002ZM35.2802 50.3999H22.6801V36.5399C22.6801 34.869 23.3439 33.2665 24.5254 32.0851C25.7068 30.9036 27.3093 30.2398 28.9802 30.2398C30.651 30.2398 32.2535 30.9036 33.435 32.0851C34.6164 33.2665 35.2802 34.869 35.2802 36.5399V50.3999ZM7.56004 22.6798H12.6001V50.3999H7.56004V22.6798ZM55.4403 60.48H2.52001V57.96H55.4403V60.48ZM55.4403 55.0166V55.44H2.52001V55.0166C2.52068 54.4607 2.74179 53.9278 3.13485 53.5348C3.5279 53.1417 4.0608 52.9206 4.61667 52.9199H53.3437C53.8995 52.9206 54.4324 53.1417 54.8255 53.5348C55.2185 53.9278 55.4396 54.4607 55.4403 55.0166ZM50.4003 50.3999H45.3603V22.6798H50.4003V50.3999Z" fill="url(#paint0_linear_7_93)"/>
<path d="M28.9802 17.6397C29.977 17.6397 30.9514 17.3442 31.7803 16.7904C32.6091 16.2365 33.2551 15.4494 33.6365 14.5285C34.018 13.6075 34.1178 12.5941 33.9233 11.6165C33.7289 10.6388 33.2489 9.74074 32.544 9.03588C31.8391 8.33102 30.9411 7.85101 29.9634 7.65654C28.9858 7.46207 27.9724 7.56187 27.0514 7.94334C26.1305 8.32481 25.3433 8.9708 24.7895 9.79963C24.2357 10.6285 23.9401 11.6029 23.9401 12.5997C23.9401 13.9364 24.4711 15.2184 25.4163 16.1636C26.3615 17.1087 27.6435 17.6397 28.9802 17.6397ZM28.9802 10.0797C29.4786 10.0797 29.9658 10.2275 30.3802 10.5044C30.7946 10.7813 31.1176 11.1749 31.3084 11.6354C31.4991 12.0958 31.549 12.6025 31.4518 13.0914C31.3545 13.5802 31.1145 14.0292 30.7621 14.3816C30.4096 14.7341 29.9606 14.9741 29.4718 15.0713C28.983 15.1686 28.4763 15.1186 28.0158 14.9279C27.5553 14.7372 27.1617 14.4142 26.8848 13.9998C26.6079 13.5854 26.4601 13.0981 26.4601 12.5997C26.4601 11.9314 26.7256 11.2904 27.1982 10.8178C27.6708 10.3452 28.3118 10.0797 28.9802 10.0797Z" fill="url(#paint1_linear_7_93)"/>
<defs>
<linearGradient id="paint0_linear_7_93" x1="28.9802" y1="0" x2="28.9802" y2="63" gradientUnits="userSpaceOnUse">
<stop stop-color="#2A13A8"/>
<stop offset="1" stop-color="#9520CA"/>
</linearGradient>
<linearGradient id="paint1_linear_7_93" x1="28.9802" y1="0" x2="28.9802" y2="63" gradientUnits="userSpaceOnUse">
<stop stop-color="#2A13A8"/>
<stop offset="1" stop-color="#9520CA"/>
</linearGradient>
</defs>
</svg>
