<svg width="55" height="62" viewBox="0 0 55 62" fill="none" xmlns="http://www.w3.org/2000/svg">
<path d="M36.9121 0.0946546C36.6109 0.0327121 36.299 0 35.9798 0H4.62253C2.07366 0 0 2.07422 0 4.62318V9.89898C0 9.90748 0.00469626 9.91453 0.00485824 9.92303V52.0781C0.00469626 52.0866 0 52.0937 0 52.1022V57.378C0 57.6704 0.0341695 57.9544 0.0863147 58.2319C0.0897964 58.2509 0.0885008 58.2711 0.0922255 58.2901C0.11676 58.4123 0.164208 58.5247 0.198216 58.6432C0.247932 58.8192 0.290361 58.9974 0.360643 59.1653C0.391331 59.2382 0.436917 59.3022 0.471168 59.3732C0.56558 59.5691 0.660153 59.7649 0.7825 59.9459C0.964198 60.2168 1.17666 60.4636 1.41002 60.6899C1.4897 60.7708 1.57172 60.8522 1.66678 60.9332C1.73237 60.9891 1.81536 61.0299 1.88524 61.082C1.98791 61.1581 2.09196 61.2296 2.20086 61.2972C2.33114 61.377 2.4679 61.4516 2.61138 61.5202C2.7581 61.5918 2.90757 61.6542 3.06247 61.7101C3.13502 61.7367 3.1951 61.7736 3.27056 61.7977C3.34101 61.819 3.41809 61.8247 3.49032 61.8432C3.62238 61.8768 3.75501 61.9041 3.89129 61.9261C3.97841 61.9408 4.06149 61.9698 4.1491 61.9794C4.29371 61.9952 4.45128 61.9971 4.59767 61.9975C4.60617 61.9976 4.61403 62 4.62253 62H35.9798C35.9847 62 35.9892 61.9985 35.9941 61.9985C36.1471 61.9985 36.3164 61.9961 36.469 61.9794C36.57 61.9684 36.6667 61.9382 36.767 61.9204C36.8566 61.9049 36.9449 61.8885 37.0327 61.8679C37.1073 61.8502 37.1856 61.844 37.2585 61.8232C37.2936 61.816 37.3287 61.8075 37.3632 61.7965C37.4739 61.7631 37.575 61.7078 37.6821 61.6659C37.7378 61.6437 37.793 61.6224 37.8477 61.5981C38.0619 61.504 38.2666 61.3917 38.464 61.2632C38.5199 61.2273 38.5753 61.1925 38.6295 61.1543C38.6947 61.1075 38.7665 61.0735 38.8296 61.0228C38.8732 60.9937 38.9156 60.9622 38.9562 60.9284C39.099 60.806 39.2365 60.6789 39.2576 60.6437C40.1319 59.7695 40.6132 58.6131 40.6132 57.3865V39.2958H50.198C52.4473 39.2958 54.2775 37.4662 54.2775 35.2163V19.7545C54.2775 17.4973 52.4473 15.6617 50.198 15.6617H40.6132V4.62682C40.6132 2.39301 39.021 0.524123 36.9121 0.0946546ZM25.5601 39.2958H29.2551V45.0971C29.2551 45.5694 29.5227 46.0005 29.9459 46.2088C30.1028 46.286 30.2709 46.3163 30.4393 46.3241C30.4583 46.325 30.476 46.3371 30.4951 46.3371C30.5129 46.3371 30.5298 46.3293 30.5476 46.3285C30.6326 46.325 30.7148 46.3088 30.7975 46.2879C30.8364 46.2781 30.8753 46.2739 30.9132 46.2603C31.0316 46.2178 31.1456 46.1609 31.2488 46.0816L38.1334 40.8142V50.8622H2.48475V11.139H38.1334V15.6617H25.5601C23.3109 15.6617 21.4805 17.4973 21.4805 19.7545V35.2163C21.4805 37.4662 23.3109 39.2958 25.5601 39.2958ZM36.7814 59.3612C36.6837 59.4008 36.5814 59.4308 36.4772 59.4558C36.4352 59.4659 36.3935 59.4745 36.3509 59.4825C36.2337 59.503 36.1145 59.5181 35.9918 59.5188L35.9883 59.5189H4.62982C4.62229 59.5187 4.61379 59.5183 4.60601 59.5183C4.49257 59.5174 4.38278 59.5028 4.2742 59.4848C4.21614 59.4741 4.16067 59.4641 4.10845 59.4506C4.03711 59.4328 3.96772 59.4103 3.89938 59.3855C3.83056 59.3603 3.76489 59.3332 3.70238 59.304C3.62991 59.2693 3.55922 59.2318 3.49153 59.1894C3.44991 59.1638 3.40967 59.137 3.37162 59.109C3.28733 59.0479 3.20587 58.9832 3.13146 58.9108C3.12239 58.9013 3.11413 58.8909 3.10474 58.8819C3.00587 58.7848 2.91834 58.679 2.84199 58.5664C2.80814 58.516 2.78426 58.4592 2.7547 58.4059C2.71786 58.3396 2.67624 58.2758 2.64701 58.2057C2.63324 58.1729 2.62725 58.1367 2.61503 58.1031C2.53406 57.8767 2.48475 57.6371 2.48475 57.3865V53.3421H38.1224V57.378C38.1224 58.0788 37.7788 58.6968 37.2564 59.0879C37.1091 59.2035 36.9505 59.2949 36.7814 59.3612ZM38.1224 4.62318V8.65908H2.48475V4.62682C2.48475 3.44376 3.44676 2.4811 4.62982 2.4811H35.9883C36.1335 2.4811 36.2752 2.49632 36.4123 2.52393C37.387 2.72466 38.1224 3.58959 38.1224 4.62318ZM51.7976 19.7545V35.2163C51.7976 36.1135 51.0947 36.8159 50.198 36.8159H39.696C39.4223 36.8159 39.1566 36.9067 38.9398 37.0726L31.735 42.587V38.0559C31.735 37.3704 31.1798 36.8159 30.4951 36.8159H25.5601C24.6779 36.8159 23.9605 36.0978 23.9605 35.2163V19.7545C23.9605 18.8657 24.6779 18.1415 25.5601 18.1415H50.198C51.0801 18.1415 51.7976 18.8657 51.7976 19.7545Z" fill="#29AEFD"/>
<path d="M24.0016 4.32893H16.6007C15.9159 4.32893 15.3608 4.8835 15.3608 5.56883C15.3608 6.25425 15.9159 6.80882 16.6007 6.80882H24.0016C24.6864 6.80882 25.2416 6.25425 25.2416 5.56883C25.2416 4.8835 24.6864 4.32893 24.0016 4.32893Z" fill="#29AEFD"/>
<path d="M20.6948 54.1031C19.4114 54.1031 18.3748 55.1582 18.3748 56.4404C18.3748 57.7225 19.4114 58.7591 20.6948 58.7591C21.9769 58.7591 23.0135 57.7225 23.0135 56.4404C23.0135 55.1582 21.9769 54.1031 20.6948 54.1031Z" fill="#29AEFD"/>
<path d="M35.5626 25.1695C35.5626 22.9948 33.8825 21.2257 31.818 21.2257C29.7534 21.2257 28.0732 22.9948 28.0732 25.1695C28.0732 27.3503 29.7534 29.1243 31.818 29.1243C33.8825 29.1243 35.5626 27.3503 35.5626 25.1695ZM31.818 26.6444C31.1205 26.6444 30.5531 25.9832 30.5531 25.1695C30.5531 24.3619 31.1205 23.7056 31.818 23.7056C32.5033 23.7056 33.0827 24.3764 33.0827 25.1695C33.0827 25.9832 32.5154 26.6444 31.818 26.6444Z" fill="#29AEFD"/>
<path d="M40.1955 29.7758C40.1955 31.9566 41.8756 33.7306 43.9402 33.7306C46.0047 33.7306 47.6848 31.9566 47.6848 29.7758C47.6848 27.601 46.0047 25.8319 43.9402 25.8319C41.8756 25.8319 40.1955 27.601 40.1955 29.7758ZM43.9402 28.3118C44.6255 28.3118 45.2049 28.9826 45.2049 29.7758C45.2049 30.5895 44.6376 31.2506 43.9402 31.2506C43.2427 31.2506 42.6754 30.5895 42.6754 29.7758C42.6754 28.9681 43.2427 28.3118 43.9402 28.3118Z" fill="#29AEFD"/>
<path d="M34.3675 34.3166C34.5491 34.4098 34.7422 34.4535 34.933 34.4535C35.3834 34.4535 35.8175 34.2076 36.0373 33.7802L41.9271 22.3106C42.2401 21.7016 41.9997 20.9532 41.3906 20.6408C40.7809 20.3284 40.0338 20.5694 39.7208 21.1772L33.8311 32.6468C33.518 33.2558 33.7584 34.0042 34.3675 34.3166Z" fill="#29AEFD"/>
</svg>
