<svg width="216" height="136" viewBox="0 0 216 136" fill="none" xmlns="http://www.w3.org/2000/svg">
<path d="M41.1348 101H38.8548L31.9948 90.62V101H29.7148V87.08H31.9948L38.8548 97.44V87.08H41.1348V101ZM48.9089 101.18C47.8689 101.18 46.9289 100.947 46.0889 100.48C45.2489 100 44.5889 99.3333 44.1089 98.48C43.6289 97.6133 43.3889 96.6133 43.3889 95.48C43.3889 94.36 43.6356 93.3667 44.1289 92.5C44.6222 91.6333 45.2956 90.9667 46.1489 90.5C47.0022 90.0333 47.9556 89.8 49.0089 89.8C50.0622 89.8 51.0156 90.0333 51.8689 90.5C52.7222 90.9667 53.3956 91.6333 53.8889 92.5C54.3822 93.3667 54.6289 94.36 54.6289 95.48C54.6289 96.6 54.3756 97.5933 53.8689 98.46C53.3622 99.3267 52.6689 100 51.7889 100.48C50.9222 100.947 49.9622 101.18 48.9089 101.18ZM48.9089 99.2C49.4956 99.2 50.0422 99.06 50.5489 98.78C51.0689 98.5 51.4889 98.08 51.8089 97.52C52.1289 96.96 52.2889 96.28 52.2889 95.48C52.2889 94.68 52.1356 94.0067 51.8289 93.46C51.5222 92.9 51.1156 92.48 50.6089 92.2C50.1022 91.92 49.5556 91.78 48.9689 91.78C48.3822 91.78 47.8356 91.92 47.3289 92.2C46.8356 92.48 46.4422 92.9 46.1489 93.46C45.8556 94.0067 45.7089 94.68 45.7089 95.48C45.7089 96.6667 46.0089 97.5867 46.6089 98.24C47.2222 98.88 47.9889 99.2 48.9089 99.2ZM67.6381 89.8C68.5048 89.8 69.2781 89.98 69.9581 90.34C70.6515 90.7 71.1915 91.2333 71.5781 91.94C71.9648 92.6467 72.1581 93.5 72.1581 94.5V101H69.8981V94.84C69.8981 93.8533 69.6515 93.1 69.1581 92.58C68.6648 92.0467 67.9915 91.78 67.1381 91.78C66.2848 91.78 65.6048 92.0467 65.0981 92.58C64.6048 93.1 64.3581 93.8533 64.3581 94.84V101H62.0781V89.98H64.3581V91.24C64.7315 90.7867 65.2048 90.4333 65.7781 90.18C66.3648 89.9267 66.9848 89.8 67.6381 89.8ZM85.1664 95.22C85.1664 95.6333 85.1397 96.0067 85.0864 96.34H76.6664C76.7331 97.22 77.0597 97.9267 77.6464 98.46C78.2331 98.9933 78.9531 99.26 79.8064 99.26C81.0331 99.26 81.8997 98.7467 82.4064 97.72H84.8664C84.5331 98.7333 83.9264 99.5667 83.0464 100.22C82.1797 100.86 81.0997 101.18 79.8064 101.18C78.7531 101.18 77.8064 100.947 76.9664 100.48C76.1397 100 75.4864 99.3333 75.0064 98.48C74.5397 97.6133 74.3064 96.6133 74.3064 95.48C74.3064 94.3467 74.5331 93.3533 74.9864 92.5C75.4531 91.6333 76.0997 90.9667 76.9264 90.5C77.7664 90.0333 78.7264 89.8 79.8064 89.8C80.8464 89.8 81.7731 90.0267 82.5864 90.48C83.3997 90.9333 84.0331 91.5733 84.4864 92.4C84.9397 93.2133 85.1664 94.1533 85.1664 95.22ZM82.7864 94.5C82.7731 93.66 82.4731 92.9867 81.8864 92.48C81.2997 91.9733 80.5731 91.72 79.7064 91.72C78.9197 91.72 78.2464 91.9733 77.6864 92.48C77.1264 92.9733 76.7931 93.6467 76.6864 94.5H82.7864ZM97.5102 95.22C97.5102 95.6333 97.4835 96.0067 97.4302 96.34H89.0102C89.0768 97.22 89.4035 97.9267 89.9902 98.46C90.5768 98.9933 91.2968 99.26 92.1502 99.26C93.3768 99.26 94.2435 98.7467 94.7502 97.72H97.2102C96.8768 98.7333 96.2702 99.5667 95.3902 100.22C94.5235 100.86 93.4435 101.18 92.1502 101.18C91.0968 101.18 90.1502 100.947 89.3102 100.48C88.4835 100 87.8302 99.3333 87.3502 98.48C86.8835 97.6133 86.6502 96.6133 86.6502 95.48C86.6502 94.3467 86.8768 93.3533 87.3302 92.5C87.7968 91.6333 88.4435 90.9667 89.2702 90.5C90.1102 90.0333 91.0702 89.8 92.1502 89.8C93.1902 89.8 94.1168 90.0267 94.9302 90.48C95.7435 90.9333 96.3768 91.5733 96.8302 92.4C97.2835 93.2133 97.5102 94.1533 97.5102 95.22ZM95.1302 94.5C95.1168 93.66 94.8168 92.9867 94.2302 92.48C93.6435 91.9733 92.9168 91.72 92.0502 91.72C91.2635 91.72 90.5902 91.9733 90.0302 92.48C89.4702 92.9733 89.1368 93.6467 89.0302 94.5H95.1302ZM98.9939 95.44C98.9939 94.3333 99.2206 93.3533 99.6739 92.5C100.141 91.6467 100.767 90.9867 101.554 90.52C102.354 90.04 103.241 89.8 104.214 89.8C104.934 89.8 105.641 89.96 106.334 90.28C107.041 90.5867 107.601 91 108.014 91.52V86.2H110.314V101H108.014V99.34C107.641 99.8733 107.121 100.313 106.454 100.66C105.801 101.007 105.047 101.18 104.194 101.18C103.234 101.18 102.354 100.94 101.554 100.46C100.767 99.9667 100.141 99.2867 99.6739 98.42C99.2206 97.54 98.9939 96.5467 98.9939 95.44ZM108.014 95.48C108.014 94.72 107.854 94.06 107.534 93.5C107.227 92.94 106.821 92.5133 106.314 92.22C105.807 91.9267 105.261 91.78 104.674 91.78C104.087 91.78 103.541 91.9267 103.034 92.22C102.527 92.5 102.114 92.92 101.794 93.48C101.487 94.0267 101.334 94.68 101.334 95.44C101.334 96.2 101.487 96.8667 101.794 97.44C102.114 98.0133 102.527 98.4533 103.034 98.76C103.554 99.0533 104.101 99.2 104.674 99.2C105.261 99.2 105.807 99.0533 106.314 98.76C106.821 98.4667 107.227 98.04 107.534 97.48C107.854 96.9067 108.014 96.24 108.014 95.48ZM121.164 91.84V97.94C121.164 98.3533 121.257 98.6533 121.444 98.84C121.644 99.0133 121.977 99.1 122.444 99.1H123.844V101H122.044C121.017 101 120.231 100.76 119.684 100.28C119.137 99.8 118.864 99.02 118.864 97.94V91.84H117.564V89.98H118.864V87.24H121.164V89.98H123.844V91.84H121.164ZM130.725 101.18C129.685 101.18 128.745 100.947 127.905 100.48C127.065 100 126.405 99.3333 125.925 98.48C125.445 97.6133 125.205 96.6133 125.205 95.48C125.205 94.36 125.452 93.3667 125.945 92.5C126.439 91.6333 127.112 90.9667 127.965 90.5C128.819 90.0333 129.772 89.8 130.825 89.8C131.879 89.8 132.832 90.0333 133.685 90.5C134.539 90.9667 135.212 91.6333 135.705 92.5C136.199 93.3667 136.445 94.36 136.445 95.48C136.445 96.6 136.192 97.5933 135.685 98.46C135.179 99.3267 134.485 100 133.605 100.48C132.739 100.947 131.779 101.18 130.725 101.18ZM130.725 99.2C131.312 99.2 131.859 99.06 132.365 98.78C132.885 98.5 133.305 98.08 133.625 97.52C133.945 96.96 134.105 96.28 134.105 95.48C134.105 94.68 133.952 94.0067 133.645 93.46C133.339 92.9 132.932 92.48 132.425 92.2C131.919 91.92 131.372 91.78 130.785 91.78C130.199 91.78 129.652 91.92 129.145 92.2C128.652 92.48 128.259 92.9 127.965 93.46C127.672 94.0067 127.525 94.68 127.525 95.48C127.525 96.6667 127.825 97.5867 128.425 98.24C129.039 98.88 129.805 99.2 130.725 99.2ZM148.155 98.96L151.275 89.98H153.695L149.495 101H146.775L142.595 89.98H145.035L148.155 98.96ZM156.578 88.52C156.165 88.52 155.818 88.38 155.538 88.1C155.258 87.82 155.118 87.4733 155.118 87.06C155.118 86.6467 155.258 86.3 155.538 86.02C155.818 85.74 156.165 85.6 156.578 85.6C156.978 85.6 157.318 85.74 157.598 86.02C157.878 86.3 158.018 86.6467 158.018 87.06C158.018 87.4733 157.878 87.82 157.598 88.1C157.318 88.38 156.978 88.52 156.578 88.52ZM157.698 89.98V101H155.418V89.98H157.698ZM164.691 101.18C163.825 101.18 163.045 101.027 162.351 100.72C161.671 100.4 161.131 99.9733 160.731 99.44C160.331 98.8933 160.118 98.2867 160.091 97.62H162.451C162.491 98.0867 162.711 98.48 163.111 98.8C163.525 99.1067 164.038 99.26 164.651 99.26C165.291 99.26 165.785 99.14 166.131 98.9C166.491 98.6467 166.671 98.3267 166.671 97.94C166.671 97.5267 166.471 97.22 166.071 97.02C165.685 96.82 165.065 96.6 164.211 96.36C163.385 96.1333 162.711 95.9133 162.191 95.7C161.671 95.4867 161.218 95.16 160.831 94.72C160.458 94.28 160.271 93.7 160.271 92.98C160.271 92.3933 160.445 91.86 160.791 91.38C161.138 90.8867 161.631 90.5 162.271 90.22C162.925 89.94 163.671 89.8 164.511 89.8C165.765 89.8 166.771 90.12 167.531 90.76C168.305 91.3867 168.718 92.2467 168.771 93.34H166.491C166.451 92.8467 166.251 92.4533 165.891 92.16C165.531 91.8667 165.045 91.72 164.431 91.72C163.831 91.72 163.371 91.8333 163.051 92.06C162.731 92.2867 162.571 92.5867 162.571 92.96C162.571 93.2533 162.678 93.5 162.891 93.7C163.105 93.9 163.365 94.06 163.671 94.18C163.978 94.2867 164.431 94.4267 165.031 94.6C165.831 94.8133 166.485 95.0333 166.991 95.26C167.511 95.4733 167.958 95.7933 168.331 96.22C168.705 96.6467 168.898 97.2133 168.911 97.92C168.911 98.5467 168.738 99.1067 168.391 99.6C168.045 100.093 167.551 100.48 166.911 100.76C166.285 101.04 165.545 101.18 164.691 101.18ZM172.535 88.52C172.122 88.52 171.775 88.38 171.495 88.1C171.215 87.82 171.075 87.4733 171.075 87.06C171.075 86.6467 171.215 86.3 171.495 86.02C171.775 85.74 172.122 85.6 172.535 85.6C172.935 85.6 173.275 85.74 173.555 86.02C173.835 86.3 173.975 86.6467 173.975 87.06C173.975 87.4733 173.835 87.82 173.555 88.1C173.275 88.38 172.935 88.52 172.535 88.52ZM173.655 89.98V101H171.375V89.98H173.655ZM179.308 91.84V97.94C179.308 98.3533 179.402 98.6533 179.588 98.84C179.788 99.0133 180.122 99.1 180.588 99.1H181.988V101H180.188C179.162 101 178.375 100.76 177.828 100.28C177.282 99.8 177.008 99.02 177.008 97.94V91.84H175.708V89.98H177.008V87.24H179.308V89.98H181.988V91.84H179.308ZM1.10328 122.02C1.10328 120.66 1.41661 119.44 2.04328 118.36C2.68328 117.28 3.54328 116.44 4.62328 115.84C5.71661 115.227 6.90995 114.92 8.20328 114.92C9.68328 114.92 10.9966 115.287 12.1433 116.02C13.3033 116.74 14.1433 117.767 14.6633 119.1H11.9233C11.5633 118.367 11.0633 117.82 10.4233 117.46C9.78328 117.1 9.04328 116.92 8.20328 116.92C7.28328 116.92 6.46328 117.127 5.74328 117.54C5.02328 117.953 4.45661 118.547 4.04328 119.32C3.64328 120.093 3.44328 120.993 3.44328 122.02C3.44328 123.047 3.64328 123.947 4.04328 124.72C4.45661 125.493 5.02328 126.093 5.74328 126.52C6.46328 126.933 7.28328 127.14 8.20328 127.14C9.04328 127.14 9.78328 126.96 10.4233 126.6C11.0633 126.24 11.5633 125.693 11.9233 124.96H14.6633C14.1433 126.293 13.3033 127.32 12.1433 128.04C10.9966 128.76 9.68328 129.12 8.20328 129.12C6.89661 129.12 5.70328 128.82 4.62328 128.22C3.54328 127.607 2.68328 126.76 2.04328 125.68C1.41661 124.6 1.10328 123.38 1.10328 122.02ZM22.112 129.18C21.072 129.18 20.132 128.947 19.292 128.48C18.452 128 17.792 127.333 17.312 126.48C16.832 125.613 16.592 124.613 16.592 123.48C16.592 122.36 16.8387 121.367 17.332 120.5C17.8254 119.633 18.4987 118.967 19.352 118.5C20.2054 118.033 21.1587 117.8 22.212 117.8C23.2654 117.8 24.2187 118.033 25.072 118.5C25.9254 118.967 26.5987 119.633 27.092 120.5C27.5854 121.367 27.832 122.36 27.832 123.48C27.832 124.6 27.5787 125.593 27.072 126.46C26.5654 127.327 25.872 128 24.992 128.48C24.1254 128.947 23.1654 129.18 22.112 129.18ZM22.112 127.2C22.6987 127.2 23.2454 127.06 23.752 126.78C24.272 126.5 24.692 126.08 25.012 125.52C25.332 124.96 25.492 124.28 25.492 123.48C25.492 122.68 25.3387 122.007 25.032 121.46C24.7254 120.9 24.3187 120.48 23.812 120.2C23.3054 119.92 22.7587 119.78 22.172 119.78C21.5854 119.78 21.0387 119.92 20.532 120.2C20.0387 120.48 19.6454 120.9 19.352 121.46C19.0587 122.007 18.912 122.68 18.912 123.48C18.912 124.667 19.212 125.587 19.812 126.24C20.4254 126.88 21.192 127.2 22.112 127.2ZM32.3659 114.2V129H30.0859V114.2H32.3659ZM37.6394 114.2V129H35.3594V114.2H37.6394ZM50.7328 123.22C50.7328 123.633 50.7061 124.007 50.6528 124.34H42.2328C42.2995 125.22 42.6261 125.927 43.2128 126.46C43.7995 126.993 44.5195 127.26 45.3728 127.26C46.5995 127.26 47.4661 126.747 47.9728 125.72H50.4328C50.0995 126.733 49.4928 127.567 48.6128 128.22C47.7461 128.86 46.6661 129.18 45.3728 129.18C44.3195 129.18 43.3728 128.947 42.5328 128.48C41.7061 128 41.0528 127.333 40.5728 126.48C40.1061 125.613 39.8728 124.613 39.8728 123.48C39.8728 122.347 40.0995 121.353 40.5528 120.5C41.0195 119.633 41.6661 118.967 42.4928 118.5C43.3328 118.033 44.2928 117.8 45.3728 117.8C46.4128 117.8 47.3395 118.027 48.1528 118.48C48.9661 118.933 49.5995 119.573 50.0528 120.4C50.5061 121.213 50.7328 122.153 50.7328 123.22ZM48.3528 122.5C48.3395 121.66 48.0395 120.987 47.4528 120.48C46.8661 119.973 46.1395 119.72 45.2728 119.72C44.4861 119.72 43.8128 119.973 43.2528 120.48C42.6928 120.973 42.3595 121.647 42.2528 122.5H48.3528ZM57.4166 117.8C58.2699 117.8 59.0232 117.973 59.6766 118.32C60.3432 118.653 60.8632 119.073 61.2366 119.58V117.98H63.5366V129.18C63.5366 130.193 63.3232 131.093 62.8966 131.88C62.4699 132.68 61.8499 133.307 61.0366 133.76C60.2366 134.213 59.2766 134.44 58.1566 134.44C56.6632 134.44 55.4232 134.087 54.4366 133.38C53.4499 132.687 52.8899 131.74 52.7566 130.54H55.0166C55.1899 131.113 55.5566 131.573 56.1166 131.92C56.6899 132.28 57.3699 132.46 58.1566 132.46C59.0766 132.46 59.8166 132.18 60.3766 131.62C60.9499 131.06 61.2366 130.247 61.2366 129.18V127.34C60.8499 127.86 60.3232 128.3 59.6566 128.66C59.0032 129.007 58.2566 129.18 57.4166 129.18C56.4566 129.18 55.5766 128.94 54.7766 128.46C53.9899 127.967 53.3632 127.287 52.8966 126.42C52.4432 125.54 52.2166 124.547 52.2166 123.44C52.2166 122.333 52.4432 121.353 52.8966 120.5C53.3632 119.647 53.9899 118.987 54.7766 118.52C55.5766 118.04 56.4566 117.8 57.4166 117.8ZM61.2366 123.48C61.2366 122.72 61.0766 122.06 60.7566 121.5C60.4499 120.94 60.0432 120.513 59.5366 120.22C59.0299 119.927 58.4832 119.78 57.8966 119.78C57.3099 119.78 56.7632 119.927 56.2566 120.22C55.7499 120.5 55.3366 120.92 55.0166 121.48C54.7099 122.027 54.5566 122.68 54.5566 123.44C54.5566 124.2 54.7099 124.867 55.0166 125.44C55.3366 126.013 55.7499 126.453 56.2566 126.76C56.7766 127.053 57.3232 127.2 57.8966 127.2C58.4832 127.2 59.0299 127.053 59.5366 126.76C60.0432 126.467 60.4499 126.04 60.7566 125.48C61.0766 124.907 61.2366 124.24 61.2366 123.48ZM76.6313 123.22C76.6313 123.633 76.6046 124.007 76.5513 124.34H68.1313C68.1979 125.22 68.5246 125.927 69.1113 126.46C69.6979 126.993 70.4179 127.26 71.2713 127.26C72.4979 127.26 73.3646 126.747 73.8713 125.72H76.3312C75.9979 126.733 75.3913 127.567 74.5113 128.22C73.6446 128.86 72.5646 129.18 71.2713 129.18C70.2179 129.18 69.2713 128.947 68.4313 128.48C67.6046 128 66.9513 127.333 66.4713 126.48C66.0046 125.613 65.7713 124.613 65.7713 123.48C65.7713 122.347 65.9979 121.353 66.4513 120.5C66.9179 119.633 67.5646 118.967 68.3913 118.5C69.2313 118.033 70.1913 117.8 71.2713 117.8C72.3113 117.8 73.2379 118.027 74.0513 118.48C74.8646 118.933 75.4979 119.573 75.9513 120.4C76.4046 121.213 76.6313 122.153 76.6313 123.22ZM74.2513 122.5C74.2379 121.66 73.9379 120.987 73.3513 120.48C72.7646 119.973 72.0379 119.72 71.1713 119.72C70.3846 119.72 69.7113 119.973 69.1513 120.48C68.5913 120.973 68.2579 121.647 68.1513 122.5H74.2513ZM81.375 126.26L78.955 131.78H77.475L78.895 126.26H81.375ZM94.9025 129.14C93.6092 129.14 92.4158 128.84 91.3225 128.24C90.2425 127.627 89.3825 126.78 88.7425 125.7C88.1158 124.607 87.8025 123.38 87.8025 122.02C87.8025 120.66 88.1158 119.44 88.7425 118.36C89.3825 117.28 90.2425 116.44 91.3225 115.84C92.4158 115.227 93.6092 114.92 94.9025 114.92C96.2092 114.92 97.4025 115.227 98.4825 115.84C99.5758 116.44 100.436 117.28 101.063 118.36C101.689 119.44 102.003 120.66 102.003 122.02C102.003 123.38 101.689 124.607 101.063 125.7C100.436 126.78 99.5758 127.627 98.4825 128.24C97.4025 128.84 96.2092 129.14 94.9025 129.14ZM94.9025 127.16C95.8225 127.16 96.6425 126.953 97.3625 126.54C98.0825 126.113 98.6425 125.513 99.0425 124.74C99.4558 123.953 99.6625 123.047 99.6625 122.02C99.6625 120.993 99.4558 120.093 99.0425 119.32C98.6425 118.547 98.0825 117.953 97.3625 117.54C96.6425 117.127 95.8225 116.92 94.9025 116.92C93.9825 116.92 93.1625 117.127 92.4425 117.54C91.7225 117.953 91.1558 118.547 90.7425 119.32C90.3425 120.093 90.1425 120.993 90.1425 122.02C90.1425 123.047 90.3425 123.953 90.7425 124.74C91.1558 125.513 91.7225 126.113 92.4425 126.54C93.1625 126.953 93.9825 127.16 94.9025 127.16ZM108.866 119.84H106.826V129H104.526V119.84H103.226V117.98H104.526V117.2C104.526 115.933 104.859 115.013 105.526 114.44C106.206 113.853 107.266 113.56 108.706 113.56V115.46C108.013 115.46 107.526 115.593 107.246 115.86C106.966 116.113 106.826 116.56 106.826 117.2V117.98H108.866V119.84ZM115.507 119.84H113.467V129H111.167V119.84H109.867V117.98H111.167V117.2C111.167 115.933 111.5 115.013 112.167 114.44C112.847 113.853 113.907 113.56 115.347 113.56V115.46C114.653 115.46 114.167 115.593 113.887 115.86C113.607 116.113 113.467 116.56 113.467 117.2V117.98H115.507V119.84ZM119.807 114.2V129H117.527V114.2H119.807ZM123.961 116.52C123.547 116.52 123.201 116.38 122.921 116.1C122.641 115.82 122.501 115.473 122.501 115.06C122.501 114.647 122.641 114.3 122.921 114.02C123.201 113.74 123.547 113.6 123.961 113.6C124.361 113.6 124.701 113.74 124.981 114.02C125.261 114.3 125.401 114.647 125.401 115.06C125.401 115.473 125.261 115.82 124.981 116.1C124.701 116.38 124.361 116.52 123.961 116.52ZM125.081 117.98V129H122.801V117.98H125.081ZM133.634 117.8C134.501 117.8 135.274 117.98 135.954 118.34C136.648 118.7 137.188 119.233 137.574 119.94C137.961 120.647 138.154 121.5 138.154 122.5V129H135.894V122.84C135.894 121.853 135.648 121.1 135.154 120.58C134.661 120.047 133.988 119.78 133.134 119.78C132.281 119.78 131.601 120.047 131.094 120.58C130.601 121.1 130.354 121.853 130.354 122.84V129H128.074V117.98H130.354V119.24C130.728 118.787 131.201 118.433 131.774 118.18C132.361 117.927 132.981 117.8 133.634 117.8ZM151.163 123.22C151.163 123.633 151.136 124.007 151.083 124.34H142.663C142.729 125.22 143.056 125.927 143.643 126.46C144.229 126.993 144.949 127.26 145.803 127.26C147.029 127.26 147.896 126.747 148.403 125.72H150.862C150.529 126.733 149.923 127.567 149.043 128.22C148.176 128.86 147.096 129.18 145.803 129.18C144.749 129.18 143.803 128.947 142.963 128.48C142.136 128 141.483 127.333 141.003 126.48C140.536 125.613 140.303 124.613 140.303 123.48C140.303 122.347 140.529 121.353 140.983 120.5C141.449 119.633 142.096 118.967 142.923 118.5C143.763 118.033 144.723 117.8 145.803 117.8C146.843 117.8 147.769 118.027 148.583 118.48C149.396 118.933 150.029 119.573 150.483 120.4C150.936 121.213 151.163 122.153 151.163 123.22ZM148.783 122.5C148.769 121.66 148.469 120.987 147.883 120.48C147.296 119.973 146.569 119.72 145.703 119.72C144.916 119.72 144.243 119.973 143.683 120.48C143.123 120.973 142.789 121.647 142.683 122.5H148.783ZM163.222 119.84H161.182V129H158.882V119.84H157.582V117.98H158.882V117.2C158.882 115.933 159.215 115.013 159.882 114.44C160.562 113.853 161.622 113.56 163.062 113.56V115.46C162.368 115.46 161.882 115.593 161.602 115.86C161.322 116.113 161.182 116.56 161.182 117.2V117.98H163.222V119.84ZM170.022 129.18C168.982 129.18 168.042 128.947 167.202 128.48C166.362 128 165.702 127.333 165.222 126.48C164.742 125.613 164.502 124.613 164.502 123.48C164.502 122.36 164.749 121.367 165.242 120.5C165.736 119.633 166.409 118.967 167.262 118.5C168.116 118.033 169.069 117.8 170.122 117.8C171.176 117.8 172.129 118.033 172.982 118.5C173.836 118.967 174.509 119.633 175.002 120.5C175.496 121.367 175.742 122.36 175.742 123.48C175.742 124.6 175.489 125.593 174.982 126.46C174.476 127.327 173.782 128 172.902 128.48C172.036 128.947 171.076 129.18 170.022 129.18ZM170.022 127.2C170.609 127.2 171.156 127.06 171.662 126.78C172.182 126.5 172.602 126.08 172.922 125.52C173.242 124.96 173.402 124.28 173.402 123.48C173.402 122.68 173.249 122.007 172.942 121.46C172.636 120.9 172.229 120.48 171.722 120.2C171.216 119.92 170.669 119.78 170.082 119.78C169.496 119.78 168.949 119.92 168.442 120.2C167.949 120.48 167.556 120.9 167.262 121.46C166.969 122.007 166.822 122.68 166.822 123.48C166.822 124.667 167.122 125.587 167.722 126.24C168.336 126.88 169.102 127.2 170.022 127.2ZM180.276 119.58C180.609 119.02 181.049 118.587 181.596 118.28C182.156 117.96 182.816 117.8 183.576 117.8V120.16H182.996C182.103 120.16 181.423 120.387 180.956 120.84C180.503 121.293 180.276 122.08 180.276 123.2V129H177.996V117.98H180.276V119.58ZM199.012 117.8C199.879 117.8 200.652 117.98 201.332 118.34C202.025 118.7 202.565 119.233 202.952 119.94C203.352 120.647 203.552 121.5 203.552 122.5V129H201.292V122.84C201.292 121.853 201.045 121.1 200.552 120.58C200.059 120.047 199.385 119.78 198.532 119.78C197.679 119.78 196.999 120.047 196.492 120.58C195.999 121.1 195.752 121.853 195.752 122.84V129H193.492V122.84C193.492 121.853 193.245 121.1 192.752 120.58C192.259 120.047 191.585 119.78 190.732 119.78C189.879 119.78 189.199 120.047 188.692 120.58C188.199 121.1 187.952 121.853 187.952 122.84V129H185.672V117.98H187.952V119.24C188.325 118.787 188.799 118.433 189.372 118.18C189.945 117.927 190.559 117.8 191.212 117.8C192.092 117.8 192.879 117.987 193.572 118.36C194.265 118.733 194.799 119.273 195.172 119.98C195.505 119.313 196.025 118.787 196.732 118.4C197.439 118 198.199 117.8 199.012 117.8ZM210.453 129.18C209.586 129.18 208.806 129.027 208.113 128.72C207.433 128.4 206.893 127.973 206.493 127.44C206.093 126.893 205.88 126.287 205.853 125.62H208.213C208.253 126.087 208.473 126.48 208.873 126.8C209.286 127.107 209.8 127.26 210.413 127.26C211.053 127.26 211.546 127.14 211.893 126.9C212.253 126.647 212.433 126.327 212.433 125.94C212.433 125.527 212.233 125.22 211.833 125.02C211.446 124.82 210.826 124.6 209.973 124.36C209.146 124.133 208.473 123.913 207.953 123.7C207.433 123.487 206.98 123.16 206.593 122.72C206.22 122.28 206.033 121.7 206.033 120.98C206.033 120.393 206.206 119.86 206.553 119.38C206.9 118.887 207.393 118.5 208.033 118.22C208.686 117.94 209.433 117.8 210.273 117.8C211.526 117.8 212.533 118.12 213.293 118.76C214.066 119.387 214.48 120.247 214.533 121.34H212.253C212.213 120.847 212.013 120.453 211.653 120.16C211.293 119.867 210.806 119.72 210.193 119.72C209.593 119.72 209.133 119.833 208.813 120.06C208.493 120.287 208.333 120.587 208.333 120.96C208.333 121.253 208.44 121.5 208.653 121.7C208.866 121.9 209.126 122.06 209.433 122.18C209.74 122.287 210.193 122.427 210.793 122.6C211.593 122.813 212.246 123.033 212.753 123.26C213.273 123.473 213.72 123.793 214.093 124.22C214.466 124.647 214.66 125.213 214.673 125.92C214.673 126.547 214.5 127.107 214.153 127.6C213.806 128.093 213.313 128.48 212.673 128.76C212.046 129.04 211.306 129.18 210.453 129.18Z" fill="white"/>
<path d="M130 13.9998H122.2L108.394 8.08079C108.269 8.02742 108.135 7.9999 108 7.9999C107.864 7.9999 107.73 8.02742 107.606 8.08079L93.7998 13.9998H85.9998C84.6742 14.0014 83.4033 14.5287 82.466 15.466C81.5287 16.4033 81.0014 17.6742 80.9998 18.9998V44.9998C81.0014 46.3254 81.5287 47.5962 82.466 48.5336C83.4033 49.4709 84.6742 49.9982 85.9998 49.9998H99.5858L100.172 50.5858C101.342 51.7565 102 53.3443 102 54.9998C102 56.6553 101.342 58.243 100.172 59.4138L99.5858 59.9998H89.9998V61.9998H126V59.9998H116.414L115.828 59.4138C114.657 58.243 114 56.6553 114 54.9998C114 53.3443 114.657 51.7565 115.828 50.5858L116.414 49.9998H130C131.325 49.9982 132.596 49.4709 133.534 48.5336C134.471 47.5962 134.998 46.3254 135 44.9998V18.9998C134.998 17.6742 134.471 16.4033 133.534 15.466C132.596 14.5287 131.325 14.0014 130 13.9998ZM94.9998 15.6588L108 10.0878L121 15.6588V15.9998H94.9998V15.6588ZM98.9998 17.9998V25.9998H96.9998V17.9998H98.9998ZM111 25.9998V17.9998H115V25.9998H111ZM109 25.9998H107V17.9998H109V25.9998ZM105 25.9998H101V17.9998H105V25.9998ZM121 27.9998V29.9998H94.9998V27.9998H121ZM117 25.9998V17.9998H119V25.9998H117ZM85.9998 15.9998H92.9998V16.9998C92.9998 17.265 93.1051 17.5194 93.2927 17.7069C93.4802 17.8944 93.7346 17.9998 93.9998 17.9998H94.9998V25.9998H93.9998C93.7346 25.9998 93.4802 26.1051 93.2927 26.2927C93.1051 26.4802 92.9998 26.7346 92.9998 26.9998V30.9998C92.9998 31.265 93.1051 31.5194 93.2927 31.7069C93.4802 31.8944 93.7346 31.9998 93.9998 31.9998H122C122.265 31.9998 122.519 31.8944 122.707 31.7069C122.894 31.5194 123 31.265 123 30.9998V26.9998C123 26.7346 122.894 26.4802 122.707 26.2927C122.519 26.1051 122.265 25.9998 122 25.9998H121V17.9998H122C122.265 17.9998 122.519 17.8944 122.707 17.7069C122.894 17.5194 123 17.265 123 16.9998V15.9998H130C130.795 15.9998 131.558 16.3159 132.121 16.8785C132.684 17.4411 133 18.2041 133 18.9998V39.9998H82.9998V18.9998C82.9998 18.2041 83.3159 17.4411 83.8785 16.8785C84.4411 16.3159 85.2041 15.9998 85.9998 15.9998ZM113.7 59.9998H102.3C103.401 58.5658 103.999 56.8081 103.999 54.9998C103.999 53.1915 103.401 51.4338 102.3 49.9998H113.7C112.598 51.4338 112.001 53.1915 112.001 54.9998C112.001 56.8081 112.598 58.5658 113.7 59.9998ZM130 47.9998H85.9998C85.2041 47.9998 84.4411 47.6837 83.8785 47.1211C83.3159 46.5585 82.9998 45.7954 82.9998 44.9998V41.9998H133V44.9998C133 45.7954 132.684 46.5585 132.121 47.1211C131.558 47.6837 130.795 47.9998 130 47.9998Z" fill="#29AEFD"/>
<path d="M127 43.9998H125V45.9998H127V43.9998Z" fill="#29AEFD"/>
<path d="M138.707 5.29279L133.707 0.292787C133.567 0.152977 133.389 0.057771 133.195 0.0192035C133.001 -0.0193641 132.8 0.000438951 132.617 0.076109C132.434 0.151779 132.278 0.279919 132.168 0.444328C132.058 0.608738 132 0.802037 132 0.999787V2.99979H124C123.735 2.99979 123.48 3.10514 123.293 3.29268C123.105 3.48022 123 3.73457 123 3.99979V7.99979C123 8.265 123.105 8.51936 123.293 8.70689C123.48 8.89443 123.735 8.99979 124 8.99979H132V10.9998C132 11.1975 132.058 11.3908 132.168 11.5552C132.278 11.7197 132.434 11.8478 132.617 11.9235C132.8 11.9991 133.001 12.0189 133.195 11.9804C133.389 11.9418 133.567 11.8466 133.707 11.7068L138.707 6.70679C138.894 6.51926 139 6.26495 139 5.99979C139 5.73462 138.894 5.48031 138.707 5.29279ZM134 8.58579V7.99979C134 7.73457 133.894 7.48022 133.707 7.29268C133.519 7.10514 133.265 6.99979 133 6.99979H125V4.99979H133C133.265 4.99979 133.519 4.89443 133.707 4.70689C133.894 4.51936 134 4.265 134 3.99979V3.41379L136.586 5.99979L134 8.58579Z" fill="#29AEFD"/>
<path d="M82.9998 11.9998C83.265 11.9998 83.5194 11.8944 83.7069 11.7069C83.8944 11.5194 83.9998 11.265 83.9998 10.9998V8.99979H91.9998C92.265 8.99979 92.5194 8.89443 92.7069 8.70689C92.8944 8.51936 92.9998 8.265 92.9998 7.99979V3.99979C92.9998 3.73457 92.8944 3.48022 92.7069 3.29268C92.5194 3.10514 92.265 2.99979 91.9998 2.99979H83.9998V0.999787C83.9997 0.802037 83.9411 0.608738 83.8312 0.444328C83.7213 0.279919 83.5651 0.151779 83.3824 0.076109C83.1997 0.000438951 82.9987 -0.0193641 82.8048 0.0192035C82.6108 0.057771 82.4326 0.152977 82.2928 0.292787L77.2928 5.29279C77.1053 5.48031 77 5.73462 77 5.99979C77 6.26495 77.1053 6.51926 77.2928 6.70679L82.2928 11.7068C82.4803 11.8943 82.7346 11.9997 82.9998 11.9998ZM81.9998 7.99979V8.58579L79.4138 5.99979L81.9998 3.41379V3.99979C81.9998 4.265 82.1051 4.51936 82.2927 4.70689C82.4802 4.89443 82.7346 4.99979 82.9998 4.99979H90.9998V6.99979H82.9998C82.7346 6.99979 82.4802 7.10514 82.2927 7.29268C82.1051 7.48022 81.9998 7.73457 81.9998 7.99979Z" fill="#29AEFD"/>
<path d="M109 1.99979H107V5.99979H109V1.99979Z" fill="#29AEFD"/>
<path d="M115.293 4.29189L112.293 7.29214L113.707 8.70636L116.707 5.7061L115.293 4.29189Z" fill="#29AEFD"/>
<path d="M100.707 4.29298L99.2924 5.7072L102.293 8.70745L103.707 7.29324L100.707 4.29298Z" fill="#29AEFD"/>
</svg>
