<svg width="62" height="63" viewBox="0 0 62 63" fill="none" xmlns="http://www.w3.org/2000/svg">
<path d="M44 45H35V44.538C36.988 44.089 38.857 43.316 40.576 42.233L42.313 43.971L47.97 38.314L46.232 36.576C47.315 34.857 48.088 32.989 48.538 31H51V25H55V23H53C53 12.605 45.706 3.661 35.589 1.512C35.07 0.613 34.11 0 33 0H29C27.89 0 26.93 0.613 26.411 1.512C16.294 3.661 9 12.605 9 23H7V25H11V31H13.462C13.911 32.988 14.685 34.857 15.768 36.576L14.03 38.314L19.687 43.971L21.424 42.233C23.143 43.316 25.012 44.089 27 44.538V45H18C17.812 45 17.629 45.023 17.442 45.028L11.819 39.405C11.94 38.931 12 38.467 12 38C12 34.691 9.309 32 6 32C5.339 32 4.657 32.125 3.974 32.372L2.493 32.907L5.586 36L4 37.586L0.905 34.491L0.371 35.974C0.121 36.669 0 37.332 0 38C0 41.309 2.691 44 6 44C6.46 44 6.931 43.939 7.405 43.819L10.327 46.741C4.235 49.629 0 55.821 0 63H2C2 58.479 3.893 54.398 6.919 51.485C9.548 54.739 11 58.813 11 63H13C13 62.33 12.958 61.663 12.892 61H30V63H32V61H49.108C49.042 61.663 49 62.33 49 63H51C51 58.813 52.452 54.739 55.081 51.485C58.107 54.398 60 58.479 60 63H62C62 53.075 53.925 45 44 45ZM26 3.66V15H28V3C28 2.449 28.448 2 29 2H33C33.552 2 34 2.449 34 3V15H36V3.66C44.764 5.914 51 13.836 51 23H49.279L48.279 26H13.721L12.721 23H11C11 13.836 17.236 5.914 26 3.66ZM39.941 28C39.442 32.493 35.625 36 31 36C26.375 36 22.558 32.493 22.059 28H39.941ZM28.176 42.735C25.888 42.327 23.765 41.449 21.866 40.127L21.179 39.648L19.686 41.142L16.857 38.313L18.351 36.819L17.872 36.132C16.55 34.235 15.672 32.112 15.264 29.823L15.118 29H13V28H20.051C20.558 33.598 25.272 38 31 38C36.728 38 41.442 33.598 41.949 28H49V29H46.882L46.736 29.824C46.328 32.113 45.45 34.235 44.128 36.133L43.649 36.82L45.143 38.314L42.314 41.143L40.821 39.649L40.134 40.128C38.236 41.451 36.113 42.328 33.824 42.736L33 42.882V45H29V42.882L28.176 42.735ZM38 47L31 56.333L24 47H38ZM7.945 41.531L7.348 41.746C6.876 41.917 6.435 42 6 42C3.942 42 2.242 40.438 2.023 38.438L4 40.414L8.414 36L6.438 34.024C8.438 34.243 10 35.942 10 38C10 38.434 9.917 38.875 9.746 39.349L9.532 39.946L14.876 45.29C14.008 45.443 13.161 45.653 12.34 45.926L7.945 41.531ZM12.586 59C11.94 55.79 10.53 52.76 8.449 50.194C11.118 48.198 14.418 47 18 47H21.5L30 58.333V59H12.586ZM49.414 59H32V58.333L40.5 47H44C47.582 47 50.882 48.198 53.552 50.194C51.47 52.76 50.061 55.79 49.414 59Z" fill="url(#paint0_linear_7_60)"/>
<path d="M47 21H15V23H47V21Z" fill="url(#paint1_linear_7_60)"/>
<defs>
<linearGradient id="paint0_linear_7_60" x1="31" y1="0" x2="31" y2="63" gradientUnits="userSpaceOnUse">
<stop stop-color="#2A13A8"/>
<stop offset="1" stop-color="#9520CA"/>
</linearGradient>
<linearGradient id="paint1_linear_7_60" x1="31" y1="0" x2="31" y2="63" gradientUnits="userSpaceOnUse">
<stop stop-color="#2A13A8"/>
<stop offset="1" stop-color="#9520CA"/>
</linearGradient>
</defs>
</svg>
