<svg width="61" height="52" viewBox="0 0 61 52" fill="none" xmlns="http://www.w3.org/2000/svg">
<path d="M56.5844 7.74533C55.5568 7.74654 54.5718 8.15525 53.8452 8.88181C53.1186 9.60838 52.7099 10.5935 52.7087 11.621V17.0469H38.3023L41.8161 13.5331C46.3999 8.94918 43.9481 0.75274 37.5916 0.0409391C36.2286 -0.102607 34.8523 0.132984 33.6146 0.721744C32.3769 1.3105 31.3258 2.22957 30.5772 3.37763L30.23 3.89883L29.8822 3.37694C29.1329 2.22967 28.0817 1.31127 26.8442 0.722714C25.6068 0.13416 24.231 -0.101745 22.8681 0.0409391C16.4959 0.754522 14.0742 8.96337 18.6437 13.5331L22.1577 17.0469H7.75128V11.621C7.75128 10.5931 7.34296 9.6073 6.61613 8.88048C5.88931 8.15365 4.90352 7.74533 3.87564 7.74533C2.84776 7.74533 1.86197 8.15365 1.13515 8.88048C0.408325 9.6073 0 10.5931 0 11.621V12.3961C0 13.0128 0.244995 13.6043 0.681089 14.0404C1.11718 14.4765 1.70865 14.7215 2.32538 14.7215C2.94211 14.7215 3.53359 14.4765 3.96968 14.0404C4.40577 13.6043 4.65077 13.0128 4.65077 12.3961V11.621C4.65077 11.4154 4.5691 11.2182 4.42374 11.0729C4.27837 10.9275 4.08122 10.8458 3.87564 10.8458C3.67006 10.8458 3.47291 10.9275 3.32754 11.0729C3.18218 11.2182 3.10051 11.4154 3.10051 11.621V12.3961C3.10051 12.6017 3.01885 12.7988 2.87348 12.9442C2.72812 13.0896 2.53096 13.1712 2.32538 13.1712C2.11981 13.1712 1.92265 13.0896 1.77729 12.9442C1.63192 12.7988 1.55026 12.6017 1.55026 12.3961V11.621C1.55026 11.0042 1.79525 10.4128 2.23135 9.97668C2.66744 9.54058 3.25891 9.29559 3.87564 9.29559C4.49237 9.29559 5.08384 9.54058 5.51994 9.97668C5.95603 10.4128 6.20103 11.0042 6.20103 11.621V37.2002C4.76248 37.2018 3.38331 37.774 2.3661 38.7912C1.3489 39.8084 0.776728 41.1876 0.775128 42.6261V50.3774C0.775128 50.583 0.856793 50.7801 1.00216 50.9255C1.14752 51.0709 1.34468 51.1525 1.55026 51.1525H10.0767C10.2822 51.1525 10.4794 51.0709 10.6248 50.9255C10.7701 50.7801 10.8518 50.583 10.8518 50.3774V48.8271C10.8525 48.2106 11.0977 47.6195 11.5336 47.1836C11.9696 46.7476 12.5607 46.5024 13.1772 46.5018H47.2828C47.8993 46.5024 48.4904 46.7476 48.9264 47.1836C49.3623 47.6195 49.6075 48.2106 49.6082 48.8271V50.3774C49.6082 50.583 49.6899 50.7801 49.8352 50.9255C49.9806 51.0709 50.1778 51.1525 50.3833 51.1525H58.9097C59.1153 51.1525 59.3125 51.0709 59.4578 50.9255C59.6032 50.7801 59.6849 50.583 59.6849 50.3774V42.6261C59.6833 41.1876 59.1111 39.8084 58.0939 38.7912C57.0767 37.774 55.6975 37.2018 54.259 37.2002V11.621C54.259 11.0042 54.504 10.4128 54.9401 9.97668C55.3762 9.54058 55.9676 9.29559 56.5844 9.29559C57.2011 9.29559 57.7926 9.54058 58.2287 9.97668C58.6647 10.4128 58.9097 11.0042 58.9097 11.621V12.3961C58.9097 12.6017 58.8281 12.7988 58.6827 12.9442C58.5373 13.0896 58.3402 13.1712 58.1346 13.1712C57.929 13.1712 57.7319 13.0896 57.5865 12.9442C57.4412 12.7988 57.3595 12.6017 57.3595 12.3961V11.621C57.3595 11.4154 57.2778 11.2182 57.1325 11.0729C56.9871 10.9275 56.7899 10.8458 56.5844 10.8458C56.3788 10.8458 56.1816 10.9275 56.0363 11.0729C55.8909 11.2182 55.8092 11.4154 55.8092 11.621V12.3961C55.8092 13.0128 56.0542 13.6043 56.4903 14.0404C56.9264 14.4765 57.5179 14.7215 58.1346 14.7215C58.7513 14.7215 59.3428 14.4765 59.7789 14.0404C60.215 13.6043 60.46 13.0128 60.46 12.3961V11.621C60.4588 10.5935 60.0501 9.60838 59.3235 8.88181C58.597 8.15525 57.6119 7.74654 56.5844 7.74533ZM19.74 12.4369C16.1292 8.82609 17.931 2.15363 23.0408 1.58174C24.1218 1.46201 25.2148 1.64731 26.1961 2.11668C27.1773 2.58605 28.0075 3.32073 28.5927 4.23756L29.5849 5.72581C29.6597 5.82625 29.757 5.90782 29.869 5.96401C29.9809 6.0202 30.1045 6.04946 30.2298 6.04946C30.355 6.04946 30.4786 6.0202 30.5905 5.96401C30.7025 5.90782 30.7998 5.82625 30.8747 5.72581L31.8668 4.23842C32.4518 3.3212 33.282 2.58618 34.2633 2.11664C35.2447 1.6471 36.3379 1.46183 37.4192 1.58182C42.5428 2.15541 44.3218 8.83516 40.7199 12.437L36.11 17.0469H24.35L19.74 12.4369ZM58.1346 42.6261V49.6023H51.1585V48.8271C51.1572 47.7996 50.7485 46.8145 50.022 46.088C49.2954 45.3614 48.3103 44.9527 47.2828 44.9515H13.1772C12.1497 44.9527 11.1646 45.3614 10.438 46.088C9.71146 46.8145 9.30275 47.7996 9.30154 48.8271V49.6023H2.32538V42.6261C2.32659 41.5986 2.73531 40.6135 3.46187 39.887C4.18843 39.1604 5.17351 38.7517 6.20103 38.7505H54.259C55.2865 38.7517 56.2716 39.1604 56.9981 39.887C57.7247 40.6135 58.1334 41.5986 58.1346 42.6261ZM26.3544 32.5494H18.6031V30.2241C18.6033 30.0186 18.6851 29.8216 18.8304 29.6763C18.9757 29.5309 19.1727 29.4492 19.3782 29.4489H25.5792C25.7847 29.4492 25.9817 29.5309 26.127 29.6763C26.2723 29.8216 26.3541 30.0186 26.3544 30.2241V32.5494ZM44.9574 34.0997C45.8505 34.1008 46.7158 34.4099 47.4076 34.9746C48.0994 35.5394 48.5753 36.3255 48.7551 37.2002H11.7049C11.8847 36.3255 12.3606 35.5394 13.0524 34.9746C13.7442 34.4099 14.6095 34.1008 15.5026 34.0997H44.9574ZM41.8569 32.5494H34.1056V30.2241C34.1059 30.0186 34.1877 29.8216 34.333 29.6763C34.4783 29.5309 34.6753 29.4492 34.8808 29.4489H41.0818C41.2873 29.4492 41.4843 29.5309 41.6296 29.6763C41.7749 29.8216 41.8567 30.0186 41.8569 30.2241V32.5494ZM50.3213 37.2002C50.1344 35.9103 49.4896 34.7306 48.5048 33.8767C47.52 33.0229 46.2609 32.5517 44.9574 32.5494H43.4072V30.2241C43.4065 29.6075 43.1613 29.0165 42.7253 28.5805C42.2894 28.1446 41.6983 27.8993 41.0818 27.8987H34.8808C34.2642 27.8993 33.6732 28.1446 33.2372 28.5805C32.8013 29.0165 32.5561 29.6075 32.5554 30.2241V32.5494H27.9046V30.2241C27.9039 29.6075 27.6587 29.0165 27.2228 28.5805C26.7868 28.1446 26.1958 27.8993 25.5792 27.8987H19.3782C18.7617 27.8993 18.1706 28.1446 17.7347 28.5805C17.2987 29.0165 17.0535 29.6075 17.0528 30.2241V32.5494H15.5026C14.1991 32.5517 12.94 33.0229 11.9552 33.8767C10.9704 34.7306 10.3256 35.9103 10.1387 37.2002H7.75128V18.5971H52.7087V37.2002H50.3213ZM24.4582 3.09611C24.4582 3.1979 24.4381 3.29869 24.3992 3.39274C24.3602 3.48678 24.3031 3.57223 24.2311 3.64421C24.1592 3.71618 24.0737 3.77328 23.9797 3.81223C23.8856 3.85119 23.7848 3.87124 23.683 3.87124C22.9652 3.87338 22.2663 4.10137 21.6853 4.52291C21.1042 4.94445 20.6706 5.53815 20.4459 6.21988L20.4077 6.32622C20.3743 6.42345 20.322 6.51307 20.2537 6.58989C20.1855 6.6667 20.1026 6.72917 20.0099 6.77367C19.9173 6.81816 19.8167 6.84378 19.7141 6.84905C19.6115 6.85431 19.5088 6.83911 19.4121 6.80434C19.3154 6.76956 19.2266 6.7159 19.1508 6.64647C19.075 6.57705 19.0138 6.49325 18.9707 6.39994C18.9276 6.30664 18.9035 6.2057 18.8998 6.103C18.896 6.00029 18.9128 5.89787 18.949 5.80169L18.9925 5.68054C19.3297 4.70344 19.9622 3.85527 20.8025 3.25338C21.6428 2.65148 22.6494 2.3256 23.683 2.32082C23.7848 2.32082 23.8856 2.34088 23.9797 2.37984C24.0737 2.41881 24.1592 2.47591 24.2312 2.54791C24.3032 2.6199 24.3603 2.70537 24.3992 2.79943C24.4381 2.89349 24.4582 2.9943 24.4582 3.09611Z" fill="url(#paint0_linear_7_70)"/>
<defs>
<linearGradient id="paint0_linear_7_70" x1="30.23" y1="0" x2="30.23" y2="51.1525" gradientUnits="userSpaceOnUse">
<stop stop-color="#2A13A8"/>
<stop offset="1" stop-color="#9520CA"/>
</linearGradient>
</defs>
</svg>
