<svg width="61" height="63" viewBox="0 0 61 63" fill="none" xmlns="http://www.w3.org/2000/svg">
<path d="M55.049 10.4224C55.1037 10.5802 55.1537 10.7412 55.1994 10.9037C55.2987 11.2561 55.6198 11.4866 55.9691 11.4866C56.0409 11.4866 56.114 11.4772 56.1867 11.4569C56.6117 11.3366 56.8594 10.8943 56.7395 10.4693C56.6852 10.2771 56.6258 10.0864 56.5609 9.89888C56.4164 9.48086 55.9601 9.2613 55.5432 9.40429C55.1256 9.54884 54.9045 10.0051 55.049 10.4224Z" fill="url(#paint0_linear_7_98)"/>
<path d="M48.7025 3.07226C48.2658 2.98475 47.8485 3.2715 47.7649 3.70593C47.6813 4.13958 47.9649 4.55916 48.3986 4.64276C50.5524 5.05922 52.4663 6.26484 53.7871 8.03771C53.9442 8.24868 54.1852 8.35963 54.4294 8.35963C54.5954 8.35963 54.763 8.30806 54.9068 8.20102C55.2612 7.93692 55.3342 7.43608 55.0701 7.08135C53.5102 4.98812 51.2489 3.56372 48.7025 3.07226Z" fill="url(#paint1_linear_7_98)"/>
<path d="M60.0074 13.2821C60.0074 5.95855 54.0493 0 46.7257 0C43.7804 0 40.9945 0.942304 38.672 2.72456C37.6621 3.49399 36.8011 4.39664 36.0668 5.38162C34.3842 7.63698 33.4424 10.3747 33.4424 13.2852C33.4424 13.2889 33.4444 13.2918 33.4445 13.2954C33.4466 15.4509 33.9677 17.5391 34.9475 19.4188H27.8355C26.7646 19.4188 25.7594 19.8345 25.0015 20.5932C24.2491 21.3558 23.835 22.359 23.835 23.4193C23.835 25.0198 24.7861 26.3939 26.1474 27.0329V39.3268L23.6057 43.7289C22.3309 41.6095 20.4767 39.9002 18.2343 38.8189V30.6573C20.0748 30.4416 21.5128 28.8903 21.5128 26.9932C21.5128 24.9492 19.8497 23.2857 17.8053 23.2857H7.62946C5.58507 23.2857 3.92197 24.9492 3.92197 26.9932C3.92197 28.8904 5.36019 30.4419 7.20089 30.6574V38.8189C2.80933 40.9316 0 45.3728 0 50.2781C0 57.293 5.70344 63 12.7137 63C14.7353 63 16.7238 62.5114 18.5071 61.592C19.5251 62.5034 20.8259 63 22.2348 63H44.6454C46.6839 63 48.5088 61.9452 49.5272 60.1778C50.5442 58.4135 50.5422 56.3093 49.5233 54.5505L40.7332 39.3268V27.0301C41.1529 26.8345 41.545 26.579 41.8747 26.2493C42.0198 26.1045 42.1484 25.9469 42.2673 25.7847C43.6958 26.2966 45.1893 26.5713 46.7257 26.5713C49.6636 26.5713 52.4491 25.629 54.7802 23.8467C55.4814 23.311 56.1043 22.7056 56.6747 22.0622C58.8066 19.6619 60.0074 16.5822 60.0074 13.2852V13.2821ZM35.1085 12.155C35.1245 11.9863 35.1451 11.8188 35.1683 11.6518C35.2045 11.3905 35.2496 11.1318 35.3029 10.8754C35.3374 10.7095 35.3732 10.5441 35.4147 10.3804C35.4791 10.1271 35.5549 9.87789 35.6359 9.63054C35.6874 9.47305 35.7369 9.31478 35.7951 9.15992C35.8891 8.9096 35.9975 8.66567 36.1085 8.42287C36.1737 8.28052 36.2335 8.13568 36.3044 7.99616C36.4357 7.73763 36.5842 7.48823 36.7348 7.24006C36.8041 7.12608 36.8654 7.00766 36.9386 6.89597C37.1575 6.56204 37.3947 6.2392 37.6487 5.92774C37.6836 5.88501 37.7195 5.84325 37.755 5.80096C38.006 5.5019 38.2725 5.21368 38.5553 4.93836C38.6843 4.8129 38.8267 4.69868 38.9622 4.57855C39.1213 4.43722 39.2805 4.29594 39.4483 4.16223H42.5193C42.9225 4.16223 43.2663 4.45133 43.2851 4.80138C43.2897 4.8967 43.2772 4.98656 43.2476 5.07094C43.078 5.55459 43.1503 6.08825 43.4405 6.49768C43.723 6.89617 44.1676 7.12432 44.6844 7.12432C45.0587 7.12432 45.363 7.42826 45.363 7.80253V9.06519C45.363 9.43945 45.0587 9.74418 44.6844 9.74418H43.3644C42.9225 9.74418 42.5643 10.102 42.5643 10.5443V11.8069C42.5643 12.1812 42.2599 12.4851 41.8857 12.4851H35.0897C35.097 12.3753 35.0981 12.2642 35.1085 12.155ZM5.52217 26.9932C5.52217 25.8313 6.4676 24.8859 7.62946 24.8859H17.8053C18.9672 24.8859 19.9126 25.8313 19.9126 26.9932C19.9126 28.1551 18.9672 29.1005 17.8053 29.1005H17.4381L17.4342 29.0997H8.00099L7.99713 29.1005H7.62946C6.4676 29.1005 5.52217 28.1551 5.52217 26.9932ZM12.7137 61.3998C6.58558 61.3998 1.6002 56.4109 1.6002 50.2781C1.6002 45.8346 4.23685 41.8271 8.31783 40.0675C8.61122 39.9417 8.80109 39.6526 8.80109 39.333V30.7007H16.6341V39.333C16.6341 39.6518 16.824 39.9409 17.1166 40.0675C19.5434 41.1168 21.5042 42.9788 22.6759 45.3377L21.122 48.0293C20.6874 46.4291 19.8076 44.9563 18.5476 43.8132C18.4003 43.6796 18.2089 43.6054 18.01 43.6054H7.42514C7.22629 43.6054 7.03486 43.6796 6.88757 43.8132C5.05297 45.4775 4.0005 47.8341 4.0005 50.2781C4.0005 55.0873 7.9127 58.9995 12.7215 58.9995C14.104 58.9995 15.4357 58.6782 16.6423 58.0646C16.6501 58.1251 16.6619 58.1848 16.6716 58.2449C16.681 58.3037 16.6887 58.3626 16.7 58.4211C16.7347 58.5998 16.7763 58.7771 16.8282 58.9517C16.8302 58.9583 16.8313 58.9651 16.8332 58.9716C16.8876 59.1522 16.9534 59.3293 17.0258 59.5042C17.0485 59.5592 17.0749 59.6126 17.0995 59.667C17.1537 59.7871 17.2112 59.9058 17.274 60.0224C17.3063 60.0824 17.3398 60.1417 17.3743 60.2007C17.4004 60.2453 17.4229 60.2916 17.4502 60.3356C15.9782 61.0341 14.3576 61.3998 12.7137 61.3998ZM19.8343 50.2599L17.3561 54.5529C17.2191 54.7919 17.1061 55.0348 17.0068 55.2793C16.9924 55.3147 16.9763 55.3497 16.9627 55.3852C16.8735 55.6184 16.8037 55.8535 16.7493 56.09C16.7442 56.1124 16.7339 56.1345 16.729 56.157C15.5476 56.9703 14.1682 57.3993 12.7215 57.3993C8.79523 57.3993 5.60069 54.2044 5.60069 50.2781C5.60069 48.3833 6.37813 46.5519 7.74315 45.2056H17.692C19.0527 46.5472 19.8295 48.3718 19.8343 50.2599ZM48.138 55.3514C48.8674 56.6109 48.8686 58.1158 48.1407 59.3792C47.4114 60.6442 46.1045 61.3998 44.6454 61.3998H22.2348C21.0698 61.3998 20.0091 60.9294 19.2465 60.0739C18.4476 59.1808 18.0788 58.0088 18.2273 56.8445C18.2374 56.8086 18.2448 56.7727 18.2503 56.7352C18.3156 56.2734 18.4816 55.8069 18.743 55.3506L21.3273 50.8782C21.3296 50.8742 21.3302 50.8696 21.3325 50.8656L27.6401 39.9409C27.7105 39.819 27.7476 39.6815 27.7476 39.5408V27.4198H30.6038V33.0502C30.6038 33.4924 30.962 33.8503 31.4039 33.8503C31.8457 33.8503 32.204 33.4924 32.204 33.0502V27.4198H39.133V39.5408C39.133 39.6815 39.1701 39.819 39.24 39.9409L48.138 55.3514ZM41.2024 24.4679C41.0879 24.7093 40.9336 24.9281 40.7433 25.118C40.2972 25.5641 39.6784 25.8196 39.0447 25.8196H27.8355C26.5119 25.8196 25.4352 24.7429 25.4352 23.4193C25.4352 22.7825 25.6856 22.1777 26.1372 21.7207C26.5892 21.2683 27.1924 21.019 27.8355 21.019H39.0447C40.3726 21.019 41.4532 22.0957 41.4532 23.4193C41.4532 23.7881 41.3723 24.1342 41.2024 24.4679ZM58.3436 14.3973C58.3271 14.574 58.3053 14.7494 58.281 14.9243C58.2451 15.1816 58.2009 15.4366 58.1483 15.6892C58.114 15.8545 58.0783 16.0192 58.037 16.1822C57.9713 16.4413 57.894 16.6964 57.8109 16.9493C57.7618 17.0989 57.7148 17.2493 57.6597 17.3965C57.5606 17.6612 57.4466 17.9194 57.3285 18.1756C57.2697 18.3033 57.2162 18.4334 57.1528 18.5587C57.0103 18.8402 56.8501 19.1124 56.6848 19.3817C56.628 19.4741 56.5786 19.5707 56.5192 19.6616C56.0565 20.3696 55.5129 21.0291 54.8963 21.6306C54.7641 21.7591 54.6185 21.8765 54.4796 21.9995C54.326 22.136 54.1726 22.2725 54.0108 22.4019C53.6761 22.36 53.4156 22.0738 53.4156 21.7253V20.4674C53.4156 20.0251 53.0574 19.6673 52.6155 19.6673H51.2954C50.9212 19.6673 50.6168 19.3633 50.6168 18.9891V17.7264C50.6168 17.3522 50.9212 17.0474 51.3193 17.0474C51.8111 17.0474 52.2549 16.8201 52.5374 16.4231C52.8288 16.0145 52.9019 15.4793 52.7319 14.9878C52.7026 14.905 52.6901 14.8175 52.6944 14.73C52.7136 14.3744 53.0574 14.0853 53.4605 14.0853H58.3614C58.3544 14.1891 58.3533 14.2941 58.3436 14.3973ZM53.4605 12.4851C52.2006 12.4851 51.1622 13.4337 51.0966 14.6471C51.0821 14.9315 51.12 15.2113 51.2255 15.448C50.0011 15.4855 49.0166 16.4935 49.0166 17.7264V18.9891C49.0166 20.2455 50.039 21.2675 51.2954 21.2675H51.8154V21.7253C51.8154 22.3897 52.1046 22.9833 52.5578 23.4009C50.7912 24.4264 48.8039 24.9711 46.7257 24.9711C45.4256 24.9711 44.1574 24.7601 42.9452 24.3436C42.9457 24.3416 42.9458 24.3393 42.9463 24.3373C42.9723 24.2288 42.9889 24.1174 43.0053 24.0061C43.0113 23.9656 43.0217 23.9263 43.0264 23.8854C43.0442 23.7323 43.0534 23.5769 43.0534 23.4193C43.0534 21.2136 41.2551 19.4188 39.0447 19.4188H36.7768C35.7815 17.8078 35.1998 15.985 35.0716 14.0853H41.8857C43.1421 14.0853 44.1645 13.0633 44.1645 11.8069V11.3444H44.6844C45.9409 11.3444 46.9632 10.3216 46.9632 9.06519V7.80253C46.9632 6.58597 46.0049 5.58897 44.7817 5.52725C44.8622 5.27175 44.8966 5.00218 44.8833 4.7209C44.8177 3.51059 43.7793 2.56204 42.5193 2.56204H42.0719C43.5235 1.929 45.0965 1.6002 46.7257 1.6002C52.8978 1.6002 57.9542 6.41564 58.3669 12.4851H53.4605Z" fill="url(#paint2_linear_7_98)"/>
<path d="M38.1286 43.6085H28.7559C28.4699 43.6085 28.2058 43.7609 28.0629 44.0086L20.8241 56.5461C20.5244 57.0649 20.524 57.6603 20.8237 58.1799C21.1276 58.7057 21.6292 58.9956 22.2367 58.9956H44.6477C45.2552 58.9956 45.7568 58.7057 46.0616 58.1791C46.3604 57.6603 46.3604 57.0649 46.0612 56.5469L38.8216 44.0086C38.6786 43.7609 38.4145 43.6085 38.1286 43.6085ZM45.3681 56.9469L44.6477 57.3954L22.2098 57.347L29.2177 45.2087H37.6668L44.6751 57.347L45.3681 56.9469Z" fill="url(#paint3_linear_7_98)"/>
<path d="M31.4039 38.6806C31.8457 38.6806 32.204 38.3227 32.204 37.8805V37.1804C32.204 36.7381 31.8457 36.3803 31.4039 36.3803C30.962 36.3803 30.6038 36.7381 30.6038 37.1804V37.8805C30.6038 38.3227 30.962 38.6806 31.4039 38.6806Z" fill="url(#paint4_linear_7_98)"/>
<path d="M36.7593 50.5189C37.3669 50.5189 37.8595 50.0263 37.8595 49.4187C37.8595 48.8111 37.3669 48.3186 36.7593 48.3186C36.1518 48.3186 35.6592 48.8111 35.6592 49.4187C35.6592 50.0263 36.1518 50.5189 36.7593 50.5189Z" fill="url(#paint5_linear_7_98)"/>
<path d="M30.1252 53.6856C30.7328 53.6856 31.2253 53.1931 31.2253 52.5855C31.2253 51.9779 30.7328 51.4853 30.1252 51.4853C29.5176 51.4853 29.025 51.9779 29.025 52.5855C29.025 53.1931 29.5176 53.6856 30.1252 53.6856Z" fill="url(#paint6_linear_7_98)"/>
<path d="M34.8657 54.2857C35.4733 54.2857 35.9659 53.7931 35.9659 53.1856C35.9659 52.578 35.4733 52.0854 34.8657 52.0854C34.2582 52.0854 33.7656 52.578 33.7656 53.1856C33.7656 53.7931 34.2582 54.2857 34.8657 54.2857Z" fill="url(#paint7_linear_7_98)"/>
<path d="M15.5962 50.2691C16.2038 50.2691 16.6963 49.7766 16.6963 49.169C16.6963 48.5614 16.2038 48.0689 15.5962 48.0689C14.9886 48.0689 14.496 48.5614 14.496 49.169C14.496 49.7766 14.9886 50.2691 15.5962 50.2691Z" fill="url(#paint8_linear_7_98)"/>
<path d="M9.83896 50.2691C10.4466 50.2691 10.9391 49.7766 10.9391 49.169C10.9391 48.5614 10.4466 48.0689 9.83896 48.0689C9.23138 48.0689 8.73883 48.5614 8.73883 49.169C8.73883 49.7766 9.23138 50.2691 9.83896 50.2691Z" fill="url(#paint9_linear_7_98)"/>
<path d="M12.5908 54.536C13.1984 54.536 13.6909 54.0435 13.6909 53.4359C13.6909 52.8283 13.1984 52.3357 12.5908 52.3357C11.9832 52.3357 11.4906 52.8283 11.4906 53.4359C11.4906 54.0435 11.9832 54.536 12.5908 54.536Z" fill="url(#paint10_linear_7_98)"/>
<defs>
<linearGradient id="paint0_linear_7_98" x1="30.0037" y1="0" x2="30.0037" y2="63" gradientUnits="userSpaceOnUse">
<stop stop-color="#2A13A8"/>
<stop offset="1" stop-color="#9520CA"/>
</linearGradient>
<linearGradient id="paint1_linear_7_98" x1="30.0037" y1="0" x2="30.0037" y2="63" gradientUnits="userSpaceOnUse">
<stop stop-color="#2A13A8"/>
<stop offset="1" stop-color="#9520CA"/>
</linearGradient>
<linearGradient id="paint2_linear_7_98" x1="30.0037" y1="0" x2="30.0037" y2="63" gradientUnits="userSpaceOnUse">
<stop stop-color="#2A13A8"/>
<stop offset="1" stop-color="#9520CA"/>
</linearGradient>
<linearGradient id="paint3_linear_7_98" x1="30.0037" y1="0" x2="30.0037" y2="63" gradientUnits="userSpaceOnUse">
<stop stop-color="#2A13A8"/>
<stop offset="1" stop-color="#9520CA"/>
</linearGradient>
<linearGradient id="paint4_linear_7_98" x1="30.0037" y1="0" x2="30.0037" y2="63" gradientUnits="userSpaceOnUse">
<stop stop-color="#2A13A8"/>
<stop offset="1" stop-color="#9520CA"/>
</linearGradient>
<linearGradient id="paint5_linear_7_98" x1="30.0037" y1="0" x2="30.0037" y2="63" gradientUnits="userSpaceOnUse">
<stop stop-color="#2A13A8"/>
<stop offset="1" stop-color="#9520CA"/>
</linearGradient>
<linearGradient id="paint6_linear_7_98" x1="30.0037" y1="0" x2="30.0037" y2="63" gradientUnits="userSpaceOnUse">
<stop stop-color="#2A13A8"/>
<stop offset="1" stop-color="#9520CA"/>
</linearGradient>
<linearGradient id="paint7_linear_7_98" x1="30.0037" y1="0" x2="30.0037" y2="63" gradientUnits="userSpaceOnUse">
<stop stop-color="#2A13A8"/>
<stop offset="1" stop-color="#9520CA"/>
</linearGradient>
<linearGradient id="paint8_linear_7_98" x1="30.0037" y1="0" x2="30.0037" y2="63" gradientUnits="userSpaceOnUse">
<stop stop-color="#2A13A8"/>
<stop offset="1" stop-color="#9520CA"/>
</linearGradient>
<linearGradient id="paint9_linear_7_98" x1="30.0037" y1="0" x2="30.0037" y2="63" gradientUnits="userSpaceOnUse">
<stop stop-color="#2A13A8"/>
<stop offset="1" stop-color="#9520CA"/>
</linearGradient>
<linearGradient id="paint10_linear_7_98" x1="30.0037" y1="0" x2="30.0037" y2="63" gradientUnits="userSpaceOnUse">
<stop stop-color="#2A13A8"/>
<stop offset="1" stop-color="#9520CA"/>
</linearGradient>
</defs>
</svg>
