<svg width="63" height="63" viewBox="0 0 63 63" fill="none" xmlns="http://www.w3.org/2000/svg">
<path d="M62.1084 26.1247L56.0962 25.5516C55.4721 22.9786 54.4149 20.482 53.0265 18.2657L56.8605 13.6419C57.1535 13.2853 57.128 12.7758 56.8095 12.4446L50.5554 6.11403C50.237 5.78286 49.702 5.75738 49.3581 6.05034L44.7216 9.88435C42.3906 8.45774 39.9577 7.426 37.4484 6.8146L36.8625 0.802467C36.8243 0.343914 36.4294 0 35.9709 0H26.9909C26.5323 0 26.1502 0.343914 26.0993 0.802467L25.5261 6.8146C22.9531 7.43874 20.4565 8.49596 18.2402 9.88435L13.6165 6.05034C13.2598 5.75738 12.7376 5.78285 12.4191 6.10129L6.10129 12.4446C5.77012 12.7758 5.75738 13.2853 6.05034 13.6419L9.88435 18.2784C8.45774 20.6094 7.426 23.0423 6.8146 25.5516L0.802467 26.1247C0.343914 26.163 0 26.5578 0 27.0164V35.9964C0 36.4549 0.343914 36.837 0.802467 36.888L6.8146 37.4612C7.43874 40.0342 8.49596 42.5307 9.88435 44.7471L6.05034 49.3708C5.75738 49.7275 5.78286 50.2497 6.10129 50.5681L12.4319 56.8987C12.763 57.2299 13.2725 57.2426 13.6292 56.9497L18.2657 53.1157C20.5966 54.5423 23.0295 55.574 25.5388 56.1854L26.112 62.1975C26.1502 62.6561 26.5451 63 27.0036 63H35.9836C36.4422 63 36.8243 62.6561 36.8753 62.1975L37.3083 57.7649C39.9832 60.6181 43.779 62.3631 47.9315 62.3631C55.9434 62.3631 62.465 55.8542 62.465 47.8678C62.465 43.7153 60.7072 39.9577 57.8795 37.3083L62.1211 36.888C62.5797 36.837 62.9236 36.4549 62.9236 35.9964V27.0164C62.9108 26.5578 62.5669 26.163 62.1084 26.1247ZM60.669 47.855C60.669 54.8607 54.9499 60.5671 47.9187 60.5671C43.6262 60.5671 39.7667 58.4399 37.4357 55.1027C37.3848 55.0008 37.3211 54.8989 37.2446 54.8225C36.3403 53.4468 35.7034 51.8928 35.385 50.186C35.2448 49.4218 35.1684 48.632 35.1684 47.855C35.1684 45.0782 36.0473 42.4416 37.7159 40.2252C40.1488 36.9899 43.8682 35.1302 47.9187 35.1302C54.9499 35.1429 60.669 40.8494 60.669 47.855ZM33.4871 49.5873C33.1177 49.6256 32.761 49.651 32.3916 49.6765V47.0526H30.6084V49.6765C29.3856 49.6128 28.201 49.4345 27.0546 49.1543L26.9017 44.0465H33.8819C33.5508 45.2693 33.3724 46.5558 33.3724 47.855C33.3852 48.441 33.4234 49.0142 33.4871 49.5873ZM49.5873 33.4488C49.0396 33.3852 48.4792 33.3469 47.9187 33.3469C45.9953 33.3469 44.1484 33.7163 42.4416 34.4042V31.7548C42.5689 30.3409 42.0977 28.927 41.1423 27.8571C40.1743 26.7871 38.7986 26.1757 37.3593 26.1757H35.2194C34.9901 26.1757 34.7736 26.2649 34.608 26.4177L31.5 29.3346L28.5194 26.4432C28.3538 26.2776 28.1245 26.1884 27.8953 26.1884H25.628C24.1886 26.1884 22.8002 26.7998 21.8449 27.8698C20.8896 28.927 20.4183 30.3409 20.5457 31.7548V42.9129C20.5457 43.7535 20.8769 44.5305 21.4628 45.1292C22.0487 45.7151 22.8385 46.0463 23.6791 46.0463C23.6919 46.0463 23.7046 46.0463 23.7173 46.0463C24.2396 46.0463 24.7491 45.8934 25.1822 45.6514L25.2713 48.6065C18.2911 46.059 13.298 39.3463 13.298 31.5C13.298 21.4628 21.4628 13.298 31.5 13.298C41.5372 13.298 49.6892 21.4628 49.6892 31.5C49.6892 32.1496 49.651 32.812 49.5873 33.4488ZM36.1747 35.8435V39.3209C35.4996 40.2507 34.9391 41.2315 34.5061 42.2632H26.8508L26.8126 40.9895H26.7998V35.8435H25.0166V42.8492C25.0166 43.6134 24.4179 44.2503 23.6919 44.263C23.3225 44.263 22.9786 44.1229 22.7238 43.8682C22.4691 43.6134 22.329 43.2823 22.329 42.9129V31.7165C22.329 31.6911 22.329 31.6529 22.329 31.6274C22.2271 30.6848 22.5328 29.7677 23.1696 29.0671C23.8065 28.3666 24.6854 27.9717 25.6407 27.9717H27.5386L30.8631 31.207C30.9395 31.2835 31.0287 31.3472 31.1306 31.3854C31.4618 31.5255 31.8312 31.4618 32.0987 31.2198L35.5633 27.959H37.3465C38.3019 27.959 39.168 28.3538 39.8176 29.0544C40.4545 29.755 40.7602 30.6721 40.6583 31.6146C40.6583 31.6401 40.6583 31.6783 40.6583 31.7038V35.2703C39.6903 35.8308 38.7859 36.5059 37.9579 37.2829V35.8308L36.1747 35.8435ZM61.1276 35.1812L55.8415 35.7161C54.4786 34.8245 52.9628 34.1621 51.3451 33.7673C51.4343 33.0158 51.4725 32.2515 51.4725 31.5C51.4725 20.482 42.5053 11.5148 31.4873 11.5148C20.4693 11.5148 11.502 20.482 11.502 31.5C11.502 42.518 20.4693 51.4852 31.4873 51.4852C32.2643 51.4852 33.0412 51.4343 33.8055 51.3579C34.2004 52.9373 34.8372 54.4021 35.6907 55.7269L35.1557 61.2295H27.8061L27.2457 55.3829C27.2074 55.0008 26.9272 54.6824 26.5451 54.5932C23.8192 54.0073 21.1698 52.8864 18.6605 51.2687C18.3294 51.0522 17.909 51.0776 17.6033 51.3324L13.0942 55.0645L7.91003 49.8803L11.6421 45.3712C11.8969 45.0655 11.9096 44.6324 11.6931 44.314C10.1264 41.9703 8.97998 39.2444 8.38132 36.4422C8.30489 36.06 7.98645 35.7798 7.59159 35.7416L1.77052 35.1812V27.8316L7.61706 27.2711C7.99919 27.2329 8.31763 26.9527 8.40679 26.5706C8.99272 23.8447 10.1136 21.1953 11.7313 18.686C11.9478 18.3548 11.9224 17.9345 11.6676 17.6288L7.9355 13.1197L13.1197 7.9355L17.6288 11.6676C17.9345 11.9224 18.3676 11.9351 18.686 11.7186C21.0297 10.1518 23.7556 9.00546 26.5578 8.40679C26.94 8.33037 27.2202 8.01193 27.2584 7.61706L27.8188 1.77052H35.1684L35.7289 7.61706C35.7671 7.99919 36.0473 8.31763 36.4294 8.40679C39.1553 8.99272 41.8047 10.1136 44.314 11.7313C44.6452 11.9478 45.0655 11.9224 45.3712 11.6676L49.8676 7.9355L54.9753 13.107L51.2432 17.6161C50.9885 17.9218 50.9757 18.3548 51.1923 18.6733C52.759 21.017 53.9054 23.7428 54.504 26.5451C54.5805 26.9272 54.8989 27.2074 55.2938 27.2457L61.1403 27.8061V35.1812H61.1276Z" fill="url(#paint0_linear_7_94)"/>
<path d="M48.2117 39.8304C47.7149 39.8304 47.3201 40.2252 47.3201 40.722V47.855L43.8427 51.3324C43.4988 51.6763 43.4988 52.2495 43.8427 52.5934C44.021 52.7717 44.2503 52.8482 44.4796 52.8482C44.7089 52.8482 44.9381 52.759 45.1165 52.5934L48.8486 48.8613C49.0142 48.6957 49.1033 48.4664 49.1033 48.2244V40.722C49.1033 40.2252 48.7085 39.8304 48.2117 39.8304Z" fill="url(#paint1_linear_7_94)"/>
<path d="M31.3471 14.6737C28.6213 14.6737 26.405 16.89 26.405 19.6159V21.2335C26.405 23.9594 28.6213 26.1757 31.3471 26.1757C34.073 26.1757 36.2893 23.9594 36.2893 21.2335V19.6159C36.2893 16.9028 34.073 14.6737 31.3471 14.6737ZM34.5061 21.2463C34.5061 22.9913 33.0922 24.4052 31.3471 24.4052C29.6021 24.4052 28.1882 22.9913 28.1882 21.2463V19.6286C28.1882 17.8835 29.6021 16.4697 31.3471 16.4697C33.0922 16.4697 34.5061 17.8835 34.5061 19.6286V21.2463Z" fill="url(#paint2_linear_7_94)"/>
<defs>
<linearGradient id="paint0_linear_7_94" x1="31.4618" y1="0" x2="31.4618" y2="63" gradientUnits="userSpaceOnUse">
<stop stop-color="#2A13A8"/>
<stop offset="1" stop-color="#9520CA"/>
</linearGradient>
<linearGradient id="paint1_linear_7_94" x1="31.4618" y1="0" x2="31.4618" y2="63" gradientUnits="userSpaceOnUse">
<stop stop-color="#2A13A8"/>
<stop offset="1" stop-color="#9520CA"/>
</linearGradient>
<linearGradient id="paint2_linear_7_94" x1="31.4618" y1="0" x2="31.4618" y2="63" gradientUnits="userSpaceOnUse">
<stop stop-color="#2A13A8"/>
<stop offset="1" stop-color="#9520CA"/>
</linearGradient>
</defs>
</svg>
