<svg width="61" height="60" viewBox="0 0 61 60" fill="none" xmlns="http://www.w3.org/2000/svg">
<path d="M49.2167 52H11.2167V50H9.21673V55C9.21832 56.3256 9.74562 57.5964 10.683 58.5338C11.6203 59.4711 12.8911 59.9984 14.2167 60H46.2167C47.5423 59.9984 48.8132 59.4711 49.7505 58.5338C50.6879 57.5964 51.2151 56.3256 51.2167 55V50H49.2167V52ZM46.2167 58H14.2167C13.4211 58 12.658 57.6839 12.0954 57.1213C11.5328 56.5587 11.2167 55.7957 11.2167 55V54H49.2167V55C49.2167 55.7957 48.9007 56.5587 48.3381 57.1213C47.7754 57.6839 47.0124 58 46.2167 58Z" fill="#29AEFD"/>
<path d="M11.2167 8H49.2167V11H51.2167V5C51.2151 3.67441 50.6879 2.40356 49.7505 1.46622C48.8132 0.528882 47.5423 0.00158786 46.2167 0H14.2167C12.8911 0.00158786 11.6203 0.528882 10.683 1.46622C9.74562 2.40356 9.21832 3.67441 9.21673 5V10H11.2167V8ZM14.2167 2H46.2167C47.0124 2 47.7754 2.31607 48.3381 2.87868C48.9007 3.44129 49.2167 4.20435 49.2167 5V6H11.2167V5C11.2167 4.20435 11.5328 3.44129 12.0954 2.87868C12.658 2.31607 13.4211 2 14.2167 2Z" fill="#29AEFD"/>
<path d="M47.2167 10H45.2167V12H47.2167V10Z" fill="#29AEFD"/>
<path d="M43.2167 10H41.2167V12H43.2167V10Z" fill="#29AEFD"/>
<path d="M39.2167 10H37.2167V12H39.2167V10Z" fill="#29AEFD"/>
<path d="M15.2167 10H13.2167V12H15.2167V10Z" fill="#29AEFD"/>
<path d="M32.2167 55H28.2167C27.9515 55 27.6972 55.1054 27.5096 55.2929C27.3221 55.4804 27.2167 55.7348 27.2167 56C27.2167 56.2652 27.3221 56.5196 27.5096 56.7071C27.6972 56.8946 27.9515 57 28.2167 57H32.2167C32.482 57 32.7363 56.8946 32.9238 56.7071C33.1114 56.5196 33.2167 56.2652 33.2167 56C33.2167 55.7348 33.1114 55.4804 32.9238 55.2929C32.7363 55.1054 32.482 55 32.2167 55Z" fill="#29AEFD"/>
<path d="M30.2167 25C29.2278 25 28.2611 25.2932 27.4389 25.8427C26.6166 26.3921 25.9758 27.173 25.5973 28.0866C25.2189 29.0002 25.1199 30.0055 25.3128 30.9755C25.5057 31.9454 25.9819 32.8363 26.6812 33.5355C27.3805 34.2348 28.2714 34.711 29.2413 34.9039C30.2112 35.0969 31.2165 34.9978 32.1302 34.6194C33.0438 34.241 33.8247 33.6001 34.3741 32.7779C34.9235 31.9556 35.2167 30.9889 35.2167 30C35.2151 28.6744 34.6879 27.4036 33.7505 26.4662C32.8132 25.5289 31.5423 25.0016 30.2167 25ZM30.2167 33C29.6234 33 29.0434 32.8241 28.55 32.4944C28.0567 32.1648 27.6722 31.6962 27.4451 31.148C27.218 30.5999 27.1586 29.9967 27.2744 29.4147C27.3901 28.8328 27.6759 28.2982 28.0954 27.8787C28.515 27.4591 29.0495 27.1734 29.6315 27.0576C30.2134 26.9419 30.8166 27.0013 31.3648 27.2284C31.913 27.4554 32.3815 27.8399 32.7111 28.3333C33.0408 28.8266 33.2167 29.4067 33.2167 30C33.2167 30.7956 32.9007 31.5587 32.3381 32.1213C31.7754 32.6839 31.0124 33 30.2167 33Z" fill="#29AEFD"/>
<path d="M55.2167 35C56.1628 34.9998 57.0893 34.7312 57.8888 34.2255C58.6883 33.7197 59.3279 32.9975 59.7333 32.1427C60.1387 31.288 60.2933 30.3358 60.1792 29.3966C60.065 28.4575 59.6868 27.5701 59.0884 26.8373C58.49 26.1046 57.696 25.5567 56.7986 25.2572C55.9012 24.9577 54.9373 24.9189 54.0188 25.1454C53.1003 25.3718 52.2648 25.8542 51.6095 26.5366C50.9542 27.2189 50.5059 28.0731 50.3167 29H47.2627C46.6943 27.872 45.8972 26.8746 44.9222 26.0715C43.9473 25.2683 42.8157 24.677 41.5997 24.335L51.5467 18.369C52.4074 19.3196 53.591 19.9158 54.8672 20.0417C56.1433 20.1676 57.4206 19.8141 58.4504 19.05C59.4802 18.2859 60.1888 17.1659 60.4383 15.9081C60.6878 14.6503 60.4603 13.3447 59.8001 12.2454C59.1399 11.1461 58.0942 10.3318 56.8666 9.9611C55.6391 9.59038 54.3175 9.68973 53.1591 10.2398C52.0008 10.7899 51.0886 11.7514 50.6002 12.937C50.1118 14.1226 50.082 15.4476 50.5167 16.654L39.5507 23.232C38.5714 21.6342 37.1986 20.3142 35.5636 19.3983C33.9286 18.4823 32.0861 18.0009 30.212 18.0001C28.3379 17.9993 26.4949 18.4791 24.8591 19.3937C23.2234 20.3082 21.8495 21.627 20.8687 23.224L9.91673 16.654C10.1104 16.1238 10.2119 15.5644 10.2167 15C10.2271 13.8218 9.82483 12.6771 9.07958 11.7645C8.33434 10.8519 7.29317 10.2289 6.13667 10.0036C4.98017 9.77825 3.78128 9.96483 2.74794 10.5309C1.71461 11.0971 0.912011 12.007 0.479361 13.1029C0.0467105 14.1989 0.011297 15.4117 0.379263 16.531C0.747228 17.6503 1.49536 18.6055 2.4939 19.231C3.49244 19.8564 4.6784 20.1127 5.84609 19.9552C7.01377 19.7978 8.08951 19.2366 8.88673 18.369L19.9717 25.017C19.8254 25.3862 19.6992 25.7631 19.5937 26.146C17.6255 26.5017 15.8331 27.5065 14.5027 29H10.1167C9.86892 27.786 9.17915 26.7072 8.18115 25.9728C7.18314 25.2384 5.94801 24.9008 4.71521 25.0253C3.48241 25.1499 2.33976 25.7277 1.5088 26.6468C0.677835 27.566 0.217755 28.7609 0.217755 30C0.217755 31.2391 0.677835 32.434 1.5088 33.3532C2.33976 34.2723 3.48241 34.8501 4.71521 34.9747C5.94801 35.0992 7.18314 34.7616 8.18115 34.0272C9.17915 33.2928 9.86892 32.214 10.1167 31H13.1517C12.4888 32.337 12.1698 33.8182 12.2235 35.3095C12.2773 36.8009 12.7022 38.2552 13.4597 39.541L8.80073 42.526C7.9242 41.6098 6.73826 41.0522 5.47349 40.9617C4.20873 40.8713 2.95551 41.2544 1.9575 42.0366C0.959487 42.8187 0.287999 43.9441 0.0735859 45.1938C-0.140827 46.4436 0.117157 47.7284 0.797381 48.7985C1.47761 49.8686 2.53146 50.6475 3.75405 50.9838C4.97664 51.3201 6.28061 51.1897 7.41242 50.618C8.54423 50.0463 9.42302 49.0742 9.87792 47.8906C10.3328 46.707 10.3313 45.3965 9.87373 44.214L14.6617 41.147C16.2092 42.8078 18.3292 43.8195 20.5936 43.9779C22.8581 44.1362 25.0983 43.4293 26.8617 42H40.2167C40.3774 41.9994 40.5351 41.9562 40.6737 41.875C42.0407 41.6502 43.3367 41.1111 44.4597 40.3L50.5597 44.212C50.1192 45.3678 50.1234 46.646 50.5716 47.7988C51.0198 48.9517 51.88 49.8971 52.9855 50.4518C54.0911 51.0066 55.3632 51.1311 56.5553 50.8013C57.7474 50.4716 58.7747 49.7109 59.438 48.6669C60.1012 47.6229 60.3533 46.3698 60.1452 45.1505C59.9372 43.9312 59.2839 42.8325 58.312 42.0675C57.3401 41.3024 56.1187 40.9254 54.8847 41.0096C53.6506 41.0938 52.4918 41.6331 51.6327 42.523L45.9907 38.907C47.4238 37.2727 48.2148 35.1736 48.2167 33C48.2139 32.3265 48.1344 31.6555 47.9797 31H50.3167C50.5488 32.1286 51.1629 33.1427 52.0555 33.8713C52.9481 34.5999 54.0645 34.9985 55.2167 35ZM55.2167 27C55.8101 27 56.3901 27.1759 56.8834 27.5056C57.3768 27.8352 57.7613 28.3038 57.9884 28.8519C58.2154 29.4001 58.2748 30.0033 58.1591 30.5853C58.0433 31.1672 57.7576 31.7018 57.3381 32.1213C56.9185 32.5409 56.3839 32.8266 55.802 32.9424C55.2201 33.0581 54.6169 32.9987 54.0687 32.7716C53.5205 32.5446 53.052 32.1601 52.7223 31.6667C52.3927 31.1734 52.2167 30.5933 52.2167 30C52.2167 29.2044 52.5328 28.4413 53.0954 27.8787C53.658 27.3161 54.4211 27 55.2167 27ZM55.2167 12C55.8101 12 56.3901 12.1759 56.8834 12.5056C57.3768 12.8352 57.7613 13.3038 57.9884 13.8519C58.2154 14.4001 58.2748 15.0033 58.1591 15.5853C58.0433 16.1672 57.7576 16.7018 57.3381 17.1213C56.9185 17.5409 56.3839 17.8266 55.802 17.9424C55.2201 18.0581 54.6169 17.9987 54.0687 17.7716C53.5205 17.5446 53.052 17.1601 52.7223 16.6667C52.3927 16.1734 52.2167 15.5933 52.2167 15C52.2167 14.2044 52.5328 13.4413 53.0954 12.8787C53.658 12.3161 54.4211 12 55.2167 12ZM5.21673 18C4.62339 18 4.04337 17.8241 3.55002 17.4944C3.05668 17.1648 2.67216 16.6962 2.4451 16.1481C2.21803 15.5999 2.15862 14.9967 2.27438 14.4147C2.39013 13.8328 2.67586 13.2982 3.09541 12.8787C3.51497 12.4591 4.04952 12.1734 4.63146 12.0576C5.21341 11.9419 5.81661 12.0013 6.36479 12.2284C6.91296 12.4554 7.3815 12.8399 7.71114 13.3333C8.04079 13.8266 8.21673 14.4067 8.21673 15C8.21673 15.7956 7.90066 16.5587 7.33806 17.1213C6.77545 17.6839 6.01238 18 5.21673 18ZM5.21673 33C4.62339 33 4.04337 32.8241 3.55002 32.4944C3.05668 32.1648 2.67216 31.6962 2.4451 31.148C2.21803 30.5999 2.15862 29.9967 2.27438 29.4147C2.39013 28.8328 2.67586 28.2982 3.09541 27.8787C3.51497 27.4591 4.04952 27.1734 4.63146 27.0576C5.21341 26.9419 5.81661 27.0013 6.36479 27.2284C6.91296 27.4554 7.3815 27.8399 7.71114 28.3333C8.04079 28.8266 8.21673 29.4067 8.21673 30C8.21673 30.7956 7.90066 31.5587 7.33806 32.1213C6.77545 32.6839 6.01238 33 5.21673 33ZM5.21673 49C4.62339 49 4.04337 48.8241 3.55002 48.4944C3.05668 48.1648 2.67216 47.6962 2.4451 47.148C2.21803 46.5999 2.15862 45.9967 2.27438 45.4147C2.39013 44.8328 2.67586 44.2982 3.09541 43.8787C3.51497 43.4591 4.04952 43.1734 4.63146 43.0576C5.21341 42.9419 5.81661 43.0013 6.36479 43.2284C6.91296 43.4554 7.3815 43.8399 7.71114 44.3333C8.04079 44.8266 8.21673 45.4067 8.21673 46C8.21673 46.7957 7.90066 47.5587 7.33806 48.1213C6.77545 48.6839 6.01238 49 5.21673 49ZM55.2167 43C55.8101 43 56.3901 43.1759 56.8834 43.5056C57.3768 43.8352 57.7613 44.3038 57.9884 44.852C58.2154 45.4001 58.2748 46.0033 58.1591 46.5853C58.0433 47.1672 57.7576 47.7018 57.3381 48.1213C56.9185 48.5409 56.3839 48.8266 55.802 48.9424C55.2201 49.0581 54.6169 48.9987 54.0687 48.7716C53.5205 48.5446 53.052 48.1601 52.7223 47.6667C52.3927 47.1734 52.2167 46.5933 52.2167 46C52.2167 45.2043 52.5328 44.4413 53.0954 43.8787C53.658 43.3161 54.4211 43 55.2167 43ZM40.0927 39.938C40.0137 39.9484 39.9363 39.9692 39.8627 40H26.4957C26.2523 40.0001 26.0173 40.089 25.8347 40.25C25.0074 40.9802 24.0193 41.5044 22.9508 41.7799C21.8823 42.0555 20.7639 42.0745 19.6866 41.8356C18.6094 41.5966 17.6039 41.1063 16.7522 40.4048C15.9005 39.7032 15.2268 38.8103 14.7858 37.7988C14.3449 36.7873 14.1494 35.6859 14.2152 34.5844C14.281 33.483 14.6062 32.4127 15.1643 31.4608C15.7225 30.509 16.4978 29.7026 17.4269 29.1074C18.356 28.5122 19.4127 28.1451 20.5107 28.036C20.7241 28.0148 20.925 27.9256 21.0838 27.7816C21.2426 27.6375 21.3509 27.4463 21.3927 27.236C21.7693 25.358 22.7352 23.6492 24.15 22.358C25.5647 21.0668 27.3545 20.2606 29.259 20.0567C31.1634 19.8528 33.0833 20.2618 34.7393 21.2243C36.3953 22.1867 37.7011 23.6523 38.4667 25.408C38.5434 25.5838 38.669 25.7338 38.8286 25.8402C38.9882 25.9466 39.175 26.0048 39.3667 26.008C41.1341 26.0421 42.823 26.7444 44.0935 27.9735C45.364 29.2027 46.1217 30.8674 46.2143 32.6328C46.3068 34.3981 45.7272 36.1329 44.5922 37.4881C43.4571 38.8433 41.8509 39.7183 40.0967 39.937L40.0927 39.938Z" fill="#29AEFD"/>
<path d="M38.2167 14H30.2167V16H38.2167V14Z" fill="#29AEFD"/>
<path d="M28.2167 14H22.2167V16H28.2167V14Z" fill="#29AEFD"/>
<path d="M38.2167 47H30.2167V49H38.2167V47Z" fill="#29AEFD"/>
<path d="M28.2167 47H22.2167V49H28.2167V47Z" fill="#29AEFD"/>
</svg>
