<svg width="61" height="47" viewBox="0 0 61 47" fill="none" xmlns="http://www.w3.org/2000/svg">
<path d="M17.6712 14.7239C18.7946 14.2695 19.9811 14.0297 21.1928 14.0297C21.6093 14.0297 21.9501 13.6889 21.9501 13.2724C21.9501 12.8559 21.6093 12.5151 21.1928 12.5151C15.1721 12.5782 10.3505 17.5134 10.4136 23.5214C10.4768 29.4411 15.2605 34.2374 21.1928 34.3005C21.6093 34.3005 21.9501 33.9597 21.9501 33.5432C21.9501 33.1267 21.6093 32.7859 21.1928 32.7859C16.0178 32.7859 11.8147 28.5828 11.8147 23.4078C11.8147 19.596 14.1245 16.1628 17.6712 14.7239Z" fill="url(#paint0_linear_7_99)"/>
<path d="M21.1801 2.27871L17.8732 2.34182C17.5576 2.34182 17.2673 2.5564 17.1664 2.85932L16.245 5.58566C14.6167 6.05267 13.0516 6.73425 11.5875 7.61779L8.93688 6.43133C8.64657 6.30511 8.30578 6.36822 8.09121 6.59541L3.92598 10.8616C3.69878 11.0888 3.64829 11.4422 3.78714 11.7199L5.07457 14.3326C4.21628 15.8094 3.59781 17.3998 3.20653 19.0532L0.492815 20.063C0.189888 20.1766 -0.0120621 20.4669 0.000559774 20.7824L0.101535 26.74C0.101535 27.0555 0.316108 27.3458 0.619034 27.4468L3.34537 28.3682C3.81238 29.9964 4.49396 31.5616 5.3775 33.0257L4.19104 35.6763C4.06482 35.9666 4.12793 36.3074 4.35512 36.522L8.62133 40.6872C8.84852 40.9144 9.20194 40.9649 9.47962 40.826L12.0924 39.5386C13.5691 40.3969 15.1595 41.0154 16.813 41.4067L17.8227 44.1204C17.9363 44.4107 18.214 44.6126 18.5295 44.6126H18.5422L21.1928 44.5621C21.6093 44.5495 21.9501 44.2087 21.9375 43.7922C21.9248 43.3757 21.584 43.0349 21.1675 43.0475L19.047 43.0854L18.0751 40.4853C17.9868 40.2454 17.7722 40.0561 17.5198 40.0056C15.7527 39.6396 14.0488 38.9706 12.5089 38.024C12.2817 37.8851 12.0166 37.8725 11.7768 37.9861L9.27767 39.2231L5.7814 35.8025L6.91737 33.2655C7.01835 33.0383 7.00572 32.7606 6.86688 32.5461C5.895 31.0062 5.16292 29.3401 4.69591 27.573C4.6328 27.3206 4.44348 27.1313 4.20366 27.0429L1.60354 26.1594L1.52781 21.2873L4.12793 20.3154C4.36774 20.2271 4.55707 20.0125 4.60756 19.7601C4.9736 17.9804 5.64256 16.289 6.5892 14.7492C6.72804 14.522 6.74066 14.2569 6.62707 14.0171L5.39012 11.518L8.81066 8.02169L11.3477 9.15766C11.5749 9.25863 11.8525 9.24601 12.0671 9.10717C13.607 8.13529 15.2731 7.40321 17.0401 6.9362C17.2926 6.87309 17.4819 6.68376 17.5703 6.44395L18.4538 3.84383L21.218 3.79334C21.6345 3.78072 21.9753 3.43993 21.9627 3.02341C21.9375 2.60688 21.5967 2.27871 21.1801 2.27871Z" fill="url(#paint1_linear_7_99)"/>
<path d="M60.7877 22.6631C60.3712 20.4921 58.276 19.0785 56.105 19.495C54.502 19.8106 53.2398 21.0601 52.9369 22.6631H22.7074V24.1777H52.9243C53.3408 26.3487 55.436 27.7624 57.607 27.3458C59.778 26.9293 61.2042 24.8215 60.7877 22.6631ZM58.6041 25.1749C57.6322 26.1468 56.0671 26.1468 55.0952 25.1749C54.1233 24.203 54.1233 22.6379 55.0952 21.666C56.0671 20.6941 57.6322 20.6941 58.6041 21.666C59.576 22.6252 59.576 24.203 58.6041 25.1749Z" fill="url(#paint2_linear_7_99)"/>
<path d="M33.6506 15.9609C33.6506 14.5598 34.7866 13.4239 36.1876 13.4239H42.5743C42.9908 15.5948 45.086 17.0085 47.257 16.592C49.428 16.1754 50.8416 14.0802 50.4251 11.9092C50.0591 10.0286 48.4182 8.66541 46.4997 8.66541C44.5812 8.66541 42.9403 10.0286 42.5743 11.9092H36.1876C33.9535 11.9092 32.136 13.7268 32.136 15.9609C32.136 17.3619 31 18.4979 29.599 18.4979H22.72V20.0125H29.599C31.833 20.0125 33.6506 18.195 33.6506 15.9609ZM44.7453 10.9121C45.7171 9.94022 47.2823 9.94022 48.2542 10.9121C49.226 11.884 49.226 13.4491 48.2542 14.421C47.2823 15.3929 45.7171 15.3929 44.7453 14.421C43.7734 13.4491 43.7734 11.8714 44.7453 10.9121Z" fill="url(#paint3_linear_7_99)"/>
<path d="M46.4997 30.1732C44.5812 30.1732 42.9403 31.5363 42.5743 33.4044H36.1876C34.7866 33.4044 33.6506 32.2684 33.6506 30.8674C33.6506 28.6333 31.833 26.8157 29.599 26.8157H22.72V28.3304H29.599C31 28.3304 32.136 29.4663 32.136 30.8674C32.136 33.1014 33.9535 34.919 36.1876 34.919H42.5743C42.9403 36.7997 44.5812 38.1628 46.4997 38.1628C48.7085 38.1628 50.4882 36.3705 50.4882 34.1617C50.4882 31.9655 48.6959 30.1732 46.4997 30.1732ZM48.2542 35.9287C47.2823 36.9006 45.7171 36.9006 44.7453 35.9287C43.7734 34.9695 43.7734 33.4044 44.7326 32.4325L44.7453 32.4199C45.7171 31.448 47.2823 31.448 48.2542 32.4199C49.2134 33.3791 49.2134 34.9569 48.2542 35.9287Z" fill="url(#paint4_linear_7_99)"/>
<path d="M38.4469 39.0085C37.8032 39.1978 37.2226 39.5386 36.743 40.0182C36.0866 40.6746 35.6827 41.5329 35.5944 42.4543H34.7361C33.3224 42.4543 32.0476 41.5707 31.5554 40.2328L29.4096 34.4394C28.6902 32.5208 26.86 31.246 24.8026 31.2334H22.7074V32.748H24.8026C26.2163 32.748 27.4911 33.6316 27.9834 34.9695L30.1291 40.7629C30.8485 42.6815 32.6787 43.9563 34.7361 43.9689H35.7332C36.3517 46.0894 38.5731 47.3011 40.6936 46.67C42.8141 46.0515 44.0258 43.8301 43.3947 41.7096C42.7889 39.5891 40.5674 38.3774 38.4469 39.0085ZM39.5703 45.3195C38.2071 45.3195 37.0964 44.2087 37.0964 42.8456C37.0964 41.4824 38.2071 40.3717 39.5703 40.3717C40.2266 40.3717 40.8577 40.6367 41.3247 41.0911C41.7917 41.5581 42.0568 42.1892 42.0568 42.8456C42.0568 44.2087 40.9461 45.3195 39.5703 45.3195Z" fill="url(#paint5_linear_7_99)"/>
<path d="M29.4096 12.3889L31.5554 6.59541C32.0476 5.27011 33.3224 4.38657 34.7361 4.37395H35.5944C35.8089 6.57017 37.7527 8.16053 39.9489 7.94595C42.1451 7.73138 43.7355 5.78761 43.5209 3.59139C43.3064 1.39518 41.3626 -0.195182 39.1664 0.0193911C37.5508 0.183476 36.1876 1.30683 35.7332 2.85932H34.7361C32.6787 2.85932 30.8485 4.14676 30.1291 6.06529L27.9834 11.8587C27.4911 13.184 26.2163 14.0676 24.8026 14.0802H22.7074V15.5948H24.8026C26.86 15.5822 28.6902 14.3074 29.4096 12.3889ZM37.8158 2.24085C38.7877 1.26896 40.3528 1.26896 41.3247 2.24085C42.2966 3.21274 42.2966 4.77785 41.3247 5.74974C40.3528 6.72163 38.7877 6.72163 37.8158 5.74974C37.3488 5.28273 37.0838 4.65163 37.0838 3.99529C37.0964 3.33896 37.3488 2.70786 37.8158 2.24085Z" fill="url(#paint6_linear_7_99)"/>
<defs>
<linearGradient id="paint0_linear_7_99" x1="30.43" y1="0" x2="30.43" y2="46.8371" gradientUnits="userSpaceOnUse">
<stop stop-color="#2A13A8"/>
<stop offset="1" stop-color="#9520CA"/>
</linearGradient>
<linearGradient id="paint1_linear_7_99" x1="30.43" y1="0" x2="30.43" y2="46.8371" gradientUnits="userSpaceOnUse">
<stop stop-color="#2A13A8"/>
<stop offset="1" stop-color="#9520CA"/>
</linearGradient>
<linearGradient id="paint2_linear_7_99" x1="30.43" y1="0" x2="30.43" y2="46.8371" gradientUnits="userSpaceOnUse">
<stop stop-color="#2A13A8"/>
<stop offset="1" stop-color="#9520CA"/>
</linearGradient>
<linearGradient id="paint3_linear_7_99" x1="30.43" y1="0" x2="30.43" y2="46.8371" gradientUnits="userSpaceOnUse">
<stop stop-color="#2A13A8"/>
<stop offset="1" stop-color="#9520CA"/>
</linearGradient>
<linearGradient id="paint4_linear_7_99" x1="30.43" y1="0" x2="30.43" y2="46.8371" gradientUnits="userSpaceOnUse">
<stop stop-color="#2A13A8"/>
<stop offset="1" stop-color="#9520CA"/>
</linearGradient>
<linearGradient id="paint5_linear_7_99" x1="30.43" y1="0" x2="30.43" y2="46.8371" gradientUnits="userSpaceOnUse">
<stop stop-color="#2A13A8"/>
<stop offset="1" stop-color="#9520CA"/>
</linearGradient>
<linearGradient id="paint6_linear_7_99" x1="30.43" y1="0" x2="30.43" y2="46.8371" gradientUnits="userSpaceOnUse">
<stop stop-color="#2A13A8"/>
<stop offset="1" stop-color="#9520CA"/>
</linearGradient>
</defs>
</svg>
