<svg width="44" height="73" viewBox="0 0 44 73" fill="none" xmlns="http://www.w3.org/2000/svg">
<path d="M34.0254 44.6613C37.7557 40.4273 39.8581 34.5216 39.8581 28.1779C39.8581 21.3085 37.2812 14.7823 32.9377 10.5556L35.1423 7.03701C35.3467 6.71581 35.3175 6.29241 35.0766 6.0004C34.8649 5.7449 29.8352 -0.226513 21.7687 0.00708725H21.7395C13.6656 -0.233813 8.63593 5.7449 8.42423 6.0004C8.18333 6.29241 8.15412 6.71581 8.35853 7.03701L10.5631 10.5629C6.21962 14.7896 3.64271 21.3158 3.64271 28.1852C3.64271 34.5581 5.76702 40.4784 9.51923 44.7124C4.08071 45.9972 0 50.9101 0 56.721V68.109C0 70.8027 2.19001 73 4.89102 73H38.8288C41.5225 73 43.7198 70.81 43.7198 68.109V56.7137C43.7052 50.8736 39.5734 45.8877 34.0254 44.6613ZM25.8859 49.7202C25.6304 50.0341 25.3822 50.3553 25.134 50.6692C23.9003 52.2606 22.8272 53.8301 22.1045 54.9251C22.1045 54.9251 22.1045 54.9252 22.1045 54.9179C22.0388 54.8084 21.9731 54.6915 21.9074 54.5747C21.8855 54.5382 21.8636 54.4944 21.8344 54.4579C21.7833 54.3776 21.7395 54.2973 21.6884 54.2243C21.6592 54.1805 21.63 54.1367 21.6008 54.0929C21.5497 54.0199 21.4986 53.9396 21.4475 53.8666C21.4183 53.8228 21.3891 53.779 21.3599 53.7352C21.3015 53.6476 21.2431 53.5673 21.1847 53.4797C21.1628 53.4432 21.1336 53.4067 21.1117 53.3702C21.0241 53.2534 20.9365 53.1293 20.8489 53.0125C20.827 52.9833 20.8051 52.9614 20.7905 52.9322C20.7175 52.8373 20.6445 52.7424 20.5715 52.6475C20.535 52.6037 20.4985 52.5599 20.462 52.5088C20.4036 52.4285 20.3379 52.3555 20.2795 52.2752C20.243 52.2241 20.2065 52.1803 20.1627 52.1292C20.097 52.0489 20.0386 51.9759 19.9729 51.8956C19.9364 51.8518 19.8999 51.8007 19.8634 51.7569C19.7904 51.6693 19.7174 51.5744 19.6371 51.4868C19.6079 51.4503 19.5787 51.4211 19.5568 51.3846C19.4546 51.2678 19.3524 51.1437 19.2502 51.0269C19.2137 50.9904 19.1845 50.9466 19.148 50.9101C19.075 50.8298 19.002 50.7422 18.929 50.6619C18.8852 50.6108 18.8414 50.567 18.7976 50.5159C18.7319 50.4429 18.6662 50.3699 18.6005 50.2969C18.5567 50.2458 18.5129 50.202 18.4691 50.1509C18.4034 50.0779 18.3304 50.0049 18.2647 49.9246C18.2209 49.8808 18.1844 49.837 18.1406 49.7932C18.053 49.6983 17.9727 49.6107 17.8851 49.5158C17.8632 49.4866 17.834 49.4647 17.8121 49.4355C17.7099 49.326 17.6004 49.2092 17.4982 49.0997C17.4544 49.0559 17.4106 49.0048 17.3668 48.961C17.3011 48.8953 17.2354 48.8223 17.1697 48.7566C17.1259 48.7055 17.0748 48.6617 17.031 48.6106C16.9653 48.5449 16.9069 48.4865 16.8412 48.4208C16.7901 48.3697 16.7462 48.3259 16.6951 48.2748C16.6294 48.2091 16.5711 48.1507 16.5054 48.085C16.4615 48.0412 16.4177 47.9974 16.3666 47.9463C16.2863 47.866 16.206 47.7857 16.1257 47.7054C16.0673 47.647 16.0016 47.5886 15.9432 47.5229C15.8848 47.4645 15.8191 47.4061 15.7607 47.3477C15.7096 47.2966 15.6585 47.2455 15.6074 47.2017C15.5563 47.1579 15.5125 47.1068 15.4614 47.063C15.4103 47.0119 15.3592 46.9608 15.3081 46.9097C15.2643 46.8659 15.2205 46.8221 15.1694 46.7783C15.1183 46.7272 15.0672 46.6834 15.0161 46.6323C14.9723 46.5958 14.9358 46.5593 14.8993 46.5228C14.6949 46.333 14.4978 46.1505 14.3153 45.9753C14.2934 45.9534 14.2715 45.9388 14.2569 45.9169C14.1985 45.8585 14.1401 45.8074 14.0817 45.749C14.0671 45.7344 14.0452 45.7125 14.0306 45.6979C13.9722 45.6468 13.9138 45.5884 13.8554 45.5373C13.8481 45.53 13.8481 45.53 13.8408 45.5227C17.2719 43.8583 18.4618 41.1573 18.8779 39.5878C19.7904 39.9455 20.754 40.1426 21.7468 40.1426C22.9659 40.1426 24.1339 39.8579 25.2216 39.3323C25.5574 40.8215 26.6524 43.6539 30.1199 45.4278C28.8935 46.3257 27.6087 47.6543 26.4115 49.0705C26.229 49.2968 26.0538 49.5085 25.8859 49.7202ZM13.1473 24.5571C13.1546 24.5498 13.1546 24.5498 13.1619 24.5425C13.1911 24.5206 13.2203 24.4914 13.2422 24.4622C13.3079 24.4038 13.3736 24.3381 13.4393 24.2724C13.4685 24.2432 13.505 24.2067 13.5415 24.1775C13.5999 24.1191 13.6656 24.0607 13.7313 23.995C13.7678 23.9585 13.8043 23.922 13.8408 23.8855C13.8992 23.8271 13.9576 23.7687 14.016 23.7103C14.0525 23.6738 14.0963 23.63 14.1328 23.5862C14.1912 23.5278 14.2496 23.4621 14.308 23.4037C14.3518 23.3599 14.3883 23.3161 14.4321 23.2796C14.4905 23.2139 14.5489 23.1555 14.6073 23.0898C14.6511 23.046 14.6876 23.0022 14.7314 22.9584C14.7898 22.8927 14.8482 22.827 14.9066 22.7686C14.9504 22.7248 14.9869 22.6737 15.0307 22.6299C15.0891 22.5642 15.1475 22.4985 15.2059 22.4328C15.2278 22.4109 15.2497 22.3817 15.2716 22.3598C15.2935 22.3379 15.3081 22.3087 15.33 22.2868C15.3884 22.2211 15.4468 22.148 15.4979 22.0823C15.5198 22.0531 15.549 22.0239 15.5709 21.9947C15.5855 21.9728 15.6074 21.951 15.622 21.9291C15.6804 21.8561 15.7315 21.7904 15.7899 21.7174C15.8337 21.6662 15.8702 21.6152 15.914 21.5641C15.9724 21.4911 16.0235 21.418 16.0819 21.345C16.1184 21.2939 16.1622 21.2428 16.1987 21.1844C16.2571 21.1114 16.3082 21.0311 16.3593 20.9581C16.3885 20.9216 16.4177 20.8778 16.4469 20.8413C16.4542 20.8267 16.4688 20.8121 16.4761 20.7975C16.5345 20.7172 16.5856 20.6442 16.6367 20.5639C16.6732 20.5128 16.7097 20.4617 16.7462 20.4033C16.8046 20.323 16.8558 20.2354 16.9069 20.1478C16.9361 20.0967 16.9726 20.0456 17.0018 19.9945C17.0602 19.8996 17.1186 19.8047 17.177 19.7098C17.2062 19.666 17.228 19.6222 17.2572 19.5784C17.3376 19.4397 17.4179 19.301 17.4909 19.1623C17.5347 19.2061 17.5858 19.2499 17.6369 19.301C17.6515 19.3083 17.6588 19.3229 17.6734 19.3302C17.7172 19.3667 17.7537 19.4032 17.7975 19.4397C17.8194 19.4543 17.834 19.4689 17.8559 19.4908C17.8924 19.52 17.9289 19.5565 17.9727 19.5857C17.9946 19.6003 18.0165 19.6222 18.0384 19.6368C18.0749 19.666 18.1187 19.7025 18.1552 19.7317C18.1771 19.7536 18.2063 19.7682 18.2282 19.7901C18.272 19.8193 18.3085 19.8558 18.3523 19.885C18.3815 19.9069 18.4107 19.9288 18.4399 19.9434C18.4837 19.9726 18.5275 20.0091 18.5713 20.0383C18.6005 20.0602 18.6297 20.0821 18.6589 20.104C18.7027 20.1332 18.7538 20.1697 18.7976 20.1989C18.8268 20.2208 18.8633 20.2427 18.8925 20.2646C18.9436 20.2938 18.9874 20.3303 19.0385 20.3595C19.075 20.3814 19.1042 20.4033 19.1407 20.4252C19.1918 20.4617 19.2429 20.4909 19.294 20.5274C19.3305 20.5493 19.367 20.5712 19.4035 20.5931C19.4546 20.6296 19.513 20.6588 19.5714 20.6953C19.586 20.7026 19.5933 20.7099 19.6079 20.7172C19.6371 20.7318 19.6663 20.7537 19.6955 20.7683C19.7539 20.8048 19.8123 20.834 19.8707 20.8705C19.9145 20.8924 19.9583 20.9143 20.0021 20.9435C20.0605 20.98 20.1262 21.0092 20.1846 21.0457C20.1992 21.053 20.2138 21.0603 20.2284 21.0676C20.2576 21.0822 20.2868 21.0968 20.316 21.1114C20.3817 21.1479 20.4474 21.1771 20.5131 21.2136C20.5569 21.2355 20.608 21.2647 20.6591 21.2866C20.7248 21.3231 20.7905 21.3523 20.8635 21.3888C20.9146 21.4107 20.9657 21.4399 21.0168 21.4618C21.0898 21.4983 21.1555 21.5276 21.2285 21.5641C21.2504 21.5714 21.2723 21.5859 21.2942 21.5932C21.3234 21.6078 21.3599 21.6224 21.3891 21.637C21.4621 21.6735 21.5351 21.7028 21.6081 21.7393C21.6665 21.7612 21.7176 21.7904 21.776 21.8123C21.8563 21.8488 21.9293 21.8779 22.0096 21.9144C22.0388 21.929 22.0607 21.9364 22.0899 21.951C22.1191 21.9656 22.1556 21.9729 22.1848 21.9875C22.2651 22.024 22.3454 22.0532 22.4257 22.0897C22.4549 22.1043 22.4841 22.1116 22.5206 22.1262C22.5498 22.1408 22.5863 22.1481 22.6155 22.1627C22.6958 22.1919 22.7834 22.2284 22.871 22.2576C22.9367 22.2795 23.0024 22.3087 23.0681 22.3306C23.1557 22.3598 23.2433 22.3963 23.3309 22.4255C23.3966 22.4474 23.4696 22.4766 23.5426 22.4985C23.6302 22.5277 23.7251 22.5642 23.82 22.5934C23.893 22.6153 23.966 22.6445 24.039 22.6664C24.1339 22.6956 24.2288 22.7321 24.3237 22.7613C24.3967 22.7832 24.477 22.8124 24.55 22.8343C24.6449 22.8635 24.7471 22.8927 24.8493 22.9292C24.9296 22.9511 25.0099 22.9803 25.0902 23.0022C25.1924 23.0314 25.2946 23.0606 25.3968 23.0898C25.4844 23.1117 25.5647 23.1409 25.6523 23.1628C25.7545 23.192 25.864 23.2212 25.9735 23.2504C26.0611 23.2723 26.1487 23.3015 26.2363 23.3234C26.3458 23.3526 26.4553 23.3818 26.5648 23.411C26.6597 23.4329 26.7473 23.4548 26.8422 23.484C26.9517 23.5132 27.0685 23.5424 27.1853 23.5643C27.2802 23.5862 27.3751 23.6081 27.47 23.63C27.5868 23.6592 27.7036 23.6811 27.8277 23.7103C27.9299 23.7322 28.0248 23.7541 28.127 23.776C28.2438 23.8052 28.3679 23.8271 28.492 23.8563C28.5942 23.8782 28.6964 23.9001 28.8059 23.922C28.93 23.9439 29.0541 23.9731 29.1782 23.995C29.2877 24.0169 29.3972 24.0388 29.5067 24.0607C29.6308 24.0826 29.7622 24.1045 29.8936 24.1337C30.0104 24.1556 30.1199 24.1775 30.2367 24.1994C30.2513 24.1994 30.2732 24.2067 30.2878 24.2067C30.3462 24.7907 30.3754 25.382 30.3754 25.9733C30.3754 32.828 26.4918 38.3979 21.7249 38.3979C20.6226 38.3979 19.5641 38.0986 18.5932 37.5511C18.5786 37.5438 18.5713 37.5365 18.5567 37.5292C15.3446 35.7115 13.067 31.2147 13.067 25.966C13.0962 25.4915 13.1108 25.0243 13.1473 24.5571ZM21.6957 1.78099C21.703 1.78099 21.7103 1.78099 21.7249 1.78099H21.776C21.7833 1.78099 21.7906 1.78099 21.8052 1.78099C27.7474 1.59849 31.9741 5.3361 33.2808 6.66471L30.3316 11.3805C28.9811 10.906 25.8348 9.98622 21.7979 9.98622C21.7906 9.98622 21.7833 9.98622 21.776 9.98622H21.7249C17.6734 9.98622 14.527 10.906 13.1692 11.3805L12.4611 10.249C12.4611 10.249 12.4611 10.2417 12.4538 10.2417L10.2127 6.65741C11.5267 5.3361 15.7534 1.59849 21.6957 1.78099ZM5.41662 28.1779C5.41662 21.929 7.67962 16.0014 11.5267 12.0959L12.0523 12.9427C12.2859 13.315 12.7531 13.461 13.1546 13.2858C13.1911 13.2712 16.7463 11.7601 21.703 11.7601C21.7103 11.7601 21.7176 11.7601 21.7249 11.7601H21.776C21.7833 11.7601 21.7906 11.7601 21.7979 11.7601C26.7254 11.7601 30.3097 13.2712 30.3462 13.2858C30.463 13.3369 30.5798 13.3588 30.6966 13.3588C30.9959 13.3588 31.2806 13.2055 31.4485 12.9427L31.9741 12.0959C35.8139 16.0014 38.0842 21.9218 38.0842 28.1779C38.0842 34.5143 35.8504 40.3616 31.9303 44.3036C27.397 42.5735 26.8933 38.8651 26.8495 38.3395C30.025 35.9013 32.1785 31.2658 32.1785 25.9587C32.1785 25.0681 32.1201 24.1775 31.996 23.3015C31.996 23.2869 31.9887 23.265 31.9814 23.2504C31.9741 23.2285 31.9741 23.2139 31.9668 23.192C31.9595 23.1555 31.9449 23.119 31.9303 23.0825C31.923 23.0679 31.923 23.0533 31.9157 23.0387C31.8938 22.9876 31.8646 22.9438 31.8354 22.9C31.8354 22.8927 31.8281 22.8927 31.8281 22.8854C31.7989 22.8489 31.7697 22.8124 31.7332 22.7832C31.7186 22.7686 31.704 22.7613 31.6967 22.7467C31.6675 22.7248 31.6456 22.7029 31.6164 22.681C31.6018 22.6737 31.5872 22.6591 31.5653 22.6518C31.5361 22.6299 31.4996 22.6153 31.4704 22.6007C31.4558 22.5934 31.4412 22.5861 31.4193 22.5788C31.3682 22.5569 31.3171 22.5423 31.2587 22.535C23.6594 21.3085 20.2941 19.2207 18.929 18.0308C18.3085 17.4906 18.0968 17.1329 18.0968 17.1256C17.9435 16.8117 17.6223 16.6219 17.2719 16.6365C17.1843 16.6365 17.104 16.6584 17.0237 16.6803C16.7828 16.7606 16.5857 16.9431 16.4834 17.184C15.4322 19.7463 13.3079 22.0167 11.7019 23.4694C11.6581 23.5059 11.6216 23.5497 11.5851 23.5935C11.5705 23.6154 11.5632 23.63 11.5486 23.6519C11.534 23.6811 11.5121 23.7103 11.4975 23.7395C11.4829 23.7614 11.4756 23.7906 11.4683 23.8125C11.461 23.8417 11.4464 23.8709 11.4391 23.9001C11.4318 23.922 11.4318 23.9512 11.4245 23.9731C11.4172 23.995 11.4172 24.0169 11.4099 24.0388C11.3442 24.6666 11.315 25.3163 11.315 25.9514C11.315 31.587 13.7386 36.4707 17.2427 38.7629C17.0091 39.9382 16.0308 42.9385 12.0085 44.3766C11.8917 44.3766 11.7749 44.3839 11.6581 44.3912C7.68692 40.4565 5.41662 34.5727 5.41662 28.1779ZM1.76661 68.109V56.7137C1.76661 51.0707 6.27072 46.406 11.8698 46.1578C11.8771 46.1651 11.8771 46.1651 11.8844 46.1724C11.9209 46.2016 11.9574 46.2381 11.9939 46.2673C12.0523 46.3184 12.118 46.3768 12.1764 46.4352C12.2129 46.4717 12.2494 46.5009 12.2859 46.5374C12.3516 46.5958 12.4173 46.6542 12.483 46.7126C12.5195 46.7491 12.5633 46.7856 12.5998 46.8221C12.6655 46.8805 12.7312 46.9462 12.7969 47.0046C12.8407 47.0484 12.8845 47.0849 12.9283 47.1287C12.994 47.1871 13.0597 47.2455 13.1254 47.3112C13.1692 47.355 13.2203 47.3988 13.2641 47.4426C13.3298 47.501 13.3955 47.5667 13.4612 47.6324C13.505 47.6762 13.5561 47.72 13.5999 47.7638C13.6656 47.8295 13.7386 47.8952 13.8043 47.9609C13.8554 48.0047 13.8992 48.0558 13.9503 48.0996C14.0233 48.1653 14.089 48.231 14.162 48.304C14.2131 48.3478 14.2569 48.3989 14.308 48.4427C14.381 48.5084 14.4467 48.5814 14.5197 48.6544C14.5708 48.7055 14.6219 48.7566 14.673 48.8004C14.746 48.8661 14.8117 48.9391 14.8847 49.0048C14.9358 49.0559 14.9869 49.107 15.038 49.1581C15.111 49.2311 15.1767 49.2968 15.2497 49.3698C15.3008 49.4209 15.3519 49.472 15.403 49.5231C15.476 49.5961 15.5417 49.6618 15.6147 49.7348C15.6658 49.7859 15.7242 49.8443 15.7753 49.8954C15.841 49.9684 15.914 50.0341 15.9797 50.1071C16.0308 50.1655 16.0892 50.2166 16.1403 50.275C16.206 50.348 16.279 50.421 16.3447 50.494C16.3958 50.5524 16.4469 50.6035 16.498 50.6619C16.5637 50.7349 16.6367 50.8079 16.7024 50.8809C16.7535 50.9393 16.8047 50.9904 16.8558 51.0488C16.9215 51.1218 16.9872 51.1948 17.0529 51.2678C17.104 51.3262 17.155 51.3773 17.2062 51.4357C17.2719 51.5087 17.3376 51.5817 17.4033 51.6547C17.4544 51.7131 17.5055 51.7715 17.5566 51.8226C17.6223 51.8956 17.688 51.9686 17.7464 52.0416C17.7975 52.1 17.8486 52.1584 17.8924 52.2095C17.9581 52.2825 18.0165 52.3555 18.0822 52.4285C18.1333 52.4869 18.1771 52.5453 18.2282 52.5964C18.2866 52.6694 18.345 52.7351 18.4034 52.8081C18.4545 52.8665 18.4983 52.9249 18.5494 52.976C18.6078 53.049 18.6662 53.1147 18.7173 53.1877C18.7611 53.2461 18.8122 53.3045 18.856 53.3629C18.9144 53.4286 18.9655 53.5016 19.0166 53.5673C19.0604 53.6257 19.1042 53.6768 19.148 53.7352C19.1991 53.8009 19.2502 53.8739 19.3013 53.9396C19.3451 53.998 19.3889 54.0491 19.4254 54.1075C19.4765 54.1732 19.5203 54.2389 19.5714 54.3046C19.6079 54.363 19.6517 54.4141 19.6882 54.4725C19.732 54.5382 19.7758 54.6039 19.8269 54.6696C19.8634 54.7207 19.8999 54.7791 19.9364 54.8302C19.9802 54.8959 20.0167 54.9543 20.0605 55.0201C20.097 55.0712 20.1335 55.1295 20.1627 55.1806C20.1992 55.239 20.2357 55.3047 20.2795 55.3631C20.3087 55.4142 20.3452 55.4653 20.3744 55.5164C20.4109 55.5748 20.4401 55.6333 20.4766 55.6917C20.5058 55.7428 20.535 55.7938 20.5642 55.8449C20.5934 55.9033 20.6226 55.9617 20.6518 56.0201C20.6737 56.0712 20.7029 56.1151 20.7248 56.1662C20.754 56.2246 20.7759 56.2829 20.8051 56.334C20.827 56.3778 20.8489 56.4217 20.8635 56.4655C20.8854 56.5239 20.9073 56.5823 20.9292 56.6334C20.9438 56.6699 20.9657 56.7137 20.9803 56.7575C21.0022 56.8159 21.0168 56.8743 21.0387 56.9327L21.1409 71.2188H4.88371C3.16821 71.2261 1.76661 69.8318 1.76661 68.109ZM41.9313 68.109C41.9313 69.8245 40.537 71.2188 38.8215 71.2188H22.9513L22.8491 57.0495C22.8637 57.0349 22.871 57.013 22.8856 56.9984C22.9075 56.9692 22.9294 56.9327 22.9513 56.8962C22.9878 56.8305 23.0316 56.7721 23.0754 56.7064C23.1046 56.6626 23.1411 56.6115 23.1703 56.5604C23.2068 56.502 23.2433 56.4509 23.2798 56.3925C23.3163 56.3341 23.3528 56.2757 23.3966 56.2173C23.4331 56.1662 23.4623 56.1151 23.4988 56.0567C23.5426 55.991 23.5864 55.9252 23.6302 55.8595C23.6667 55.8084 23.6959 55.7574 23.7324 55.699C23.7762 55.6406 23.82 55.5748 23.8565 55.5091C23.9003 55.4507 23.9368 55.385 23.9806 55.3266C24.0244 55.2609 24.0682 55.1952 24.112 55.1368C24.1558 55.0711 24.1996 55.0127 24.2434 54.947C24.2945 54.874 24.3383 54.801 24.3894 54.7353C24.4332 54.6769 24.4697 54.6112 24.5135 54.5528C24.5646 54.4798 24.6157 54.4068 24.6668 54.3338C24.7106 54.2681 24.7544 54.2024 24.8055 54.1367C24.8566 54.0637 24.9077 53.9907 24.9588 53.9177C25.0026 53.852 25.0537 53.7863 25.0975 53.7206C25.1486 53.6476 25.207 53.5673 25.2581 53.4943C25.3092 53.4286 25.353 53.3629 25.4041 53.2972C25.4625 53.2242 25.5136 53.1439 25.572 53.0709C25.6231 53.0052 25.6742 52.9322 25.718 52.8665C25.7764 52.7935 25.8275 52.7205 25.8859 52.6402C25.937 52.5672 25.9881 52.5015 26.0465 52.4285C26.1049 52.3555 26.1633 52.2752 26.2144 52.2022C26.2655 52.1365 26.3166 52.0635 26.375 51.9978C26.4334 51.9248 26.4918 51.8445 26.5502 51.7715C26.6013 51.6985 26.6597 51.6328 26.7108 51.5598C26.7692 51.4868 26.8276 51.4138 26.886 51.3335C26.9444 51.2605 26.9955 51.1948 27.0539 51.1218C27.1123 51.0488 27.1707 50.9758 27.2291 50.9028C27.2875 50.8298 27.3386 50.7641 27.397 50.6911C27.4554 50.6181 27.5138 50.5451 27.5722 50.4721C27.6306 50.4064 27.6817 50.3334 27.7401 50.2677C27.7985 50.1947 27.8569 50.1217 27.9226 50.056C27.981 49.9903 28.0321 49.9246 28.0905 49.8589C28.1489 49.7859 28.2073 49.7202 28.273 49.6545C28.3314 49.5888 28.3898 49.5231 28.4409 49.4574C28.4993 49.3917 28.5577 49.326 28.6234 49.2603C28.6818 49.1946 28.7402 49.1362 28.7913 49.0705C28.8497 49.0048 28.9081 48.9391 28.9665 48.8807C29.0249 48.8223 29.0833 48.7566 29.1417 48.6982C29.2001 48.6398 29.2585 48.5741 29.3169 48.5157C29.3753 48.4573 29.4337 48.3989 29.4921 48.3405C29.5505 48.2821 29.6089 48.2237 29.6673 48.1653C29.7257 48.1069 29.7841 48.0558 29.8352 47.9974C29.8936 47.939 29.952 47.8879 30.0104 47.8368C30.0688 47.7857 30.1199 47.7346 30.1783 47.6835C30.2367 47.6324 30.2951 47.5813 30.3462 47.5302C30.4046 47.4791 30.4557 47.4353 30.5141 47.3842C30.5725 47.3331 30.6236 47.2893 30.682 47.2455C30.7404 47.2017 30.7915 47.1579 30.8426 47.1141C30.901 47.0703 30.9521 47.0265 31.0032 46.9827C31.0543 46.9389 31.1127 46.9024 31.1638 46.8586C31.2149 46.8221 31.2733 46.7783 31.3244 46.7418C31.3755 46.7053 31.4266 46.6688 31.485 46.6323C31.5361 46.5958 31.5872 46.5666 31.6383 46.5301C31.6894 46.5009 31.7405 46.4644 31.7916 46.4352C31.8427 46.406 31.8938 46.3768 31.9449 46.3549C31.996 46.3257 32.0471 46.3038 32.0909 46.2819C32.142 46.26 32.1858 46.2381 32.2369 46.2162C32.2661 46.2016 32.2953 46.1943 32.3245 46.1797C37.7265 46.6615 41.9313 51.2459 41.9313 56.6991V68.109Z" fill="url(#paint0_linear_7_100)"/>
<path d="M37.0476 59.4658H28.1708C27.6817 59.4658 27.2802 59.86 27.2802 60.3564C27.2802 60.8455 27.6744 61.247 28.1708 61.247H37.0476C37.5367 61.247 37.9382 60.8528 37.9382 60.3564C37.9382 59.86 37.5367 59.4658 37.0476 59.4658Z" fill="url(#paint1_linear_7_100)"/>
<path d="M18.6297 6.76691H20.2941V8.43131C20.2941 8.92041 20.6883 9.32191 21.1847 9.32191C21.6738 9.32191 22.0753 8.92771 22.0753 8.43131V6.76691H23.7397C24.2288 6.76691 24.6303 6.37271 24.6303 5.8763C24.6303 5.3799 24.2361 4.9857 23.7397 4.9857H22.068V3.3286C22.068 2.8395 21.6738 2.43799 21.1774 2.43799C20.6883 2.43799 20.2868 2.8322 20.2868 3.3286V4.993H18.6224C18.1333 4.993 17.7318 5.3872 17.7318 5.8836C17.7318 6.38001 18.1406 6.76691 18.6297 6.76691Z" fill="url(#paint2_linear_7_100)"/>
<defs>
<linearGradient id="paint0_linear_7_100" x1="21.8599" y1="0" x2="21.8599" y2="73" gradientUnits="userSpaceOnUse">
<stop stop-color="#2A13A8"/>
<stop offset="1" stop-color="#9520CA"/>
</linearGradient>
<linearGradient id="paint1_linear_7_100" x1="21.8599" y1="0" x2="21.8599" y2="73" gradientUnits="userSpaceOnUse">
<stop stop-color="#2A13A8"/>
<stop offset="1" stop-color="#9520CA"/>
</linearGradient>
<linearGradient id="paint2_linear_7_100" x1="21.8599" y1="0" x2="21.8599" y2="73" gradientUnits="userSpaceOnUse">
<stop stop-color="#2A13A8"/>
<stop offset="1" stop-color="#9520CA"/>
</linearGradient>
</defs>
</svg>
